# Blender v2.91.0 OBJ File: 'gun.blend'
# www.blender.org
mtllib gun.mtl
o Cube
v 0.012484 0.006162 0.024020
v -0.093052 0.163227 0.035796
v -0.093052 0.116773 0.035796
v -0.014949 0.006162 0.024020
v -0.103227 0.153052 0.035796
v -0.103227 0.126948 0.035796
v -0.060000 0.100000 0.010000
v -0.070000 0.100000 0.010000
v -0.071464 0.066464 0.010000
v -0.078536 0.073536 0.010000
v -0.072838 0.083726 0.010000
v -0.063153 0.080057 0.010000
v -0.100000 0.100000 0.020000
v -0.100000 0.180000 0.020000
v -0.032484 0.093838 0.024020
v -0.005051 0.093838 0.024020
v -0.040000 0.180000 0.020000
v -0.000000 0.100000 0.020000
v 0.020000 0.000000 0.020000
v -0.040000 0.100000 0.020000
v -0.020000 0.000000 0.020000
v -0.212768 0.160000 0.012122
v -0.212768 0.152122 0.020000
v -0.230000 0.116628 0.013315
v -0.212768 0.127878 0.020000
v -0.212768 0.120000 0.012122
v -0.230000 0.125834 0.022521
v -0.230000 0.154166 0.022521
v -0.230000 0.163372 0.013315
v -0.120000 0.120000 0.012122
v -0.120000 0.127878 0.020000
v -0.114509 0.122274 0.025171
v -0.114429 0.114429 0.020000
v -0.120000 0.152122 0.020000
v -0.120000 0.160000 0.012122
v -0.114429 0.165571 0.020000
v -0.114509 0.157726 0.025171
v -0.233000 0.126800 0.008001
v -0.233000 0.131999 0.013200
v -0.233000 0.148001 0.013200
v -0.233000 0.153200 0.008001
v -0.220309 0.129591 0.006309
v -0.220309 0.133691 0.010409
v -0.220309 0.146309 0.010409
v -0.220309 0.150409 0.006309
v 0.020274 0.166484 0.020000
v 0.030000 0.148310 0.020000
v 0.022070 0.155756 0.027467
v 0.030000 0.132877 0.020000
v 0.019286 0.112857 0.020000
v 0.021265 0.124675 0.028226
v -0.009902 0.180000 0.020000
v 0.008239 0.174507 0.020000
v -0.002131 0.172960 0.026629
v 0.016215 0.152623 0.032981
v 0.009121 0.153760 0.035796
v 0.009121 0.126240 0.035796
v 0.016215 0.127377 0.032981
v -0.005079 0.158090 0.035796
v -0.003946 0.166966 0.032275
v -0.000805 0.160377 0.035796
v -0.040000 0.166966 0.032275
v -0.040000 0.158090 0.035796
v -0.045136 0.163227 0.035796
v -0.003946 0.113031 0.032272
v -0.005079 0.121914 0.035796
v -0.000801 0.119625 0.035796
v -0.040000 0.121914 0.035796
v -0.040000 0.113031 0.032272
v -0.045140 0.116773 0.035796
v -0.230000 0.140000 0.025536
v -0.120000 0.140000 0.022837
v -0.212768 0.140000 0.022837
v -0.233000 0.140000 0.016037
v -0.220309 0.140000 0.012624
v 0.012484 0.006162 -0.024020
v -0.093052 0.163227 -0.035796
v -0.093052 0.116773 -0.035796
v -0.014949 0.006162 -0.024020
v -0.103227 0.153052 -0.035796
v -0.103227 0.126948 -0.035796
v -0.060000 0.100000 -0.010000
v -0.070000 0.100000 -0.010000
v -0.071464 0.066464 -0.010000
v -0.078536 0.073536 -0.010000
v -0.072838 0.083726 -0.010000
v -0.063153 0.080057 -0.010000
v -0.100000 0.100000 -0.020000
v -0.100000 0.180000 -0.020000
v -0.032484 0.093838 -0.024020
v -0.005051 0.093838 -0.024020
v -0.040000 0.180000 -0.020000
v -0.000000 0.100000 -0.020000
v 0.020000 0.000000 -0.020000
v -0.040000 0.100000 -0.020000
v -0.020000 0.000000 -0.020000
v -0.212768 0.160000 -0.012122
v -0.212768 0.152122 -0.020000
v -0.230000 0.116628 -0.013315
v -0.212768 0.127878 -0.020000
v -0.212768 0.120000 -0.012122
v -0.230000 0.125834 -0.022521
v -0.230000 0.154166 -0.022521
v -0.230000 0.163372 -0.013315
v -0.120000 0.120000 -0.012122
v -0.120000 0.127878 -0.020000
v -0.114509 0.122274 -0.025171
v -0.114429 0.114429 -0.020000
v -0.120000 0.152122 -0.020000
v -0.120000 0.160000 -0.012122
v -0.114429 0.165571 -0.020000
v -0.114509 0.157726 -0.025171
v -0.233000 0.126800 -0.008001
v -0.233000 0.131999 -0.013200
v -0.233000 0.148001 -0.013200
v -0.233000 0.153200 -0.008001
v -0.220309 0.129591 -0.006309
v -0.220309 0.133691 -0.010409
v -0.220309 0.146309 -0.010409
v -0.220309 0.150409 -0.006309
v 0.020274 0.166484 -0.020000
v 0.030000 0.148310 -0.020000
v 0.022070 0.155756 -0.027467
v 0.030000 0.132877 -0.020000
v 0.019286 0.112857 -0.020000
v 0.021265 0.124675 -0.028226
v -0.009902 0.180000 -0.020000
v 0.008239 0.174507 -0.020000
v -0.002131 0.172960 -0.026629
v 0.016215 0.152623 -0.032981
v 0.009121 0.153760 -0.035796
v 0.009121 0.126240 -0.035796
v 0.016215 0.127377 -0.032981
v -0.005079 0.158090 -0.035796
v -0.003946 0.166966 -0.032275
v -0.000805 0.160377 -0.035796
v -0.040000 0.166966 -0.032275
v -0.040000 0.158090 -0.035796
v -0.045136 0.163227 -0.035796
v -0.003946 0.113031 -0.032272
v -0.005079 0.121914 -0.035796
v -0.000801 0.119625 -0.035796
v -0.040000 0.121914 -0.035796
v -0.040000 0.113031 -0.032272
v -0.045140 0.116773 -0.035796
v -0.040000 0.180000 0.000000
v 0.020000 0.000000 0.000000
v -0.020000 0.000000 0.000000
v -0.100000 0.180000 0.000000
v -0.040000 0.100000 0.000000
v -0.100000 0.100000 0.000000
v -0.000000 0.100000 0.000000
v 0.020274 0.166484 0.000000
v 0.030000 0.148310 0.000000
v 0.019286 0.112857 0.000000
v 0.030000 0.132877 0.000000
v 0.008239 0.174507 0.000000
v -0.009902 0.180000 0.000000
v -0.230000 0.166950 0.000000
v -0.212768 0.163061 0.000000
v -0.120000 0.163061 0.000000
v -0.233000 0.155220 0.000000
v -0.220309 0.152002 0.000000
v -0.230000 0.113050 0.000000
v -0.212768 0.116939 0.000000
v -0.120000 0.116939 0.000000
v -0.233000 0.124779 0.000000
v -0.220309 0.127998 0.000000
v -0.072838 0.083726 0.000000
v -0.070000 0.100000 0.000000
v -0.063153 0.080057 0.000000
v -0.071464 0.066464 0.000000
v -0.060000 0.100000 0.000000
v -0.078536 0.073536 0.000000
v -0.230000 0.140000 -0.025536
v -0.120000 0.140000 -0.022837
v -0.212768 0.140000 -0.022837
v -0.233000 0.140000 -0.016037
v -0.220309 0.140000 -0.012624
vt 0.390404 0.789272
vt 0.609596 0.789272
vt 0.609596 0.960728
vt 0.390404 0.960728
vt 0.603594 0.965750
vt 0.574033 0.918453
vt 0.625000 1.000000
vt 0.625000 1.000000
vt 0.016682 0.026691
vt 0.009010 0.014416
vt 0.000000 0.000000
vt 0.000000 0.000000
vt 0.101830 0.162928
vt 0.625000 1.000000
vt 0.173930 0.278288
vt 0.000000 0.000000
vt 0.000000 0.000000
vt 0.000000 0.000000
vt 0.000000 0.000000
vt 0.000000 0.000000
vt 0.000000 0.000000
vt 0.625000 1.000000
vt 0.625000 1.000000
vt 0.625000 1.000000
vt 0.625000 1.000000
vt 0.625000 1.000000
vt 0.625000 1.000000
vt 0.625000 1.000000
vt 0.625000 1.000000
vt 0.625000 1.000000
vt 0.625000 1.000000
vt 0.625000 1.000000
vt 0.625000 1.000000
vt 0.625000 1.000000
vt 0.625000 1.000000
vt 0.523194 0.837111
vt 0.504581 0.807329
vt 0.625000 1.000000
vt 0.625000 1.000000
vt 0.625000 1.000000
vt 0.625000 1.000000
vt 0.453798 0.726076
vt 0.171169 0.273871
vt 0.044971 0.071954
vt 0.000000 0.000000
vt 0.000000 0.000000
vt 0.000000 0.000000
vt 0.000000 0.000000
vt 0.012983 0.020773
vt 0.044360 0.070976
vt 0.004815 0.007704
vt 0.016455 0.026329
vt 0.025494 0.040790
vt 0.053856 0.086169
vt 0.375000 0.750000
vt 0.625000 0.750000
vt 0.375000 1.000000
vt 0.625000 1.000000
vt 0.625000 1.000000
vt 0.625000 1.000000
vt 0.625000 1.000000
vt 0.625000 1.000000
vt 0.625000 1.000000
vt 0.625000 1.000000
vt 0.625000 1.000000
vt 0.625000 1.000000
vt 0.625000 1.000000
vt 0.625000 1.000000
vt 0.625000 1.000000
vt 0.625000 1.000000
vt 0.625000 1.000000
vt 0.625000 1.000000
vt 0.625000 1.000000
vt 0.625000 1.000000
vt 0.000000 0.000000
vt 0.000000 0.000000
vt 0.000000 0.000000
vt 0.000000 0.000000
vt 0.000000 0.000000
vt 0.000000 0.000000
vt 0.000000 0.000000
vt 0.000000 0.000000
vt 0.000000 0.000000
vt 0.000000 0.000000
vt -0.005539 -0.008863
vt 0.143496 0.229594
vt 0.046477 0.074363
vt 0.506375 0.810200
vt 0.000000 0.000000
vt 0.000000 0.000000
vt 0.000000 0.000000
vt 0.375000 0.750000
vt 0.625000 0.750000
vt 0.625000 1.000000
vt 0.625000 1.000000
vt 0.000000 0.000000
vt 0.375000 1.000000
vt 0.625000 1.000000
vt 0.625000 1.000000
vt 0.625000 1.000000
vt 0.625000 1.000000
vt 0.625000 1.000000
vt 0.625000 1.000000
vt 0.625000 1.000000
vt 0.000000 0.000000
vt 0.000000 0.000000
vt 0.000000 0.000000
vt 0.000000 0.000000
vt 0.000000 0.000000
vt 0.000000 0.000000
vt 0.390404 0.789272
vt 0.390404 0.960728
vt 0.609596 0.960728
vt 0.609596 0.789272
vt 0.603594 0.965750
vt 0.625000 1.000000
vt 0.625000 1.000000
vt 0.574033 0.918453
vt 0.016682 0.026691
vt 0.101830 0.162928
vt 0.000000 0.000000
vt 0.000000 0.000000
vt 0.009010 0.014416
vt 0.173930 0.278288
vt 0.625000 1.000000
vt 0.000000 0.000000
vt 0.000000 0.000000
vt 0.000000 0.000000
vt 0.000000 0.000000
vt 0.000000 0.000000
vt 0.000000 0.000000
vt 0.625000 1.000000
vt 0.625000 1.000000
vt 0.625000 1.000000
vt 0.625000 1.000000
vt 0.625000 1.000000
vt 0.625000 1.000000
vt 0.625000 1.000000
vt 0.625000 1.000000
vt 0.625000 1.000000
vt 0.625000 1.000000
vt 0.625000 1.000000
vt 0.625000 1.000000
vt 0.625000 1.000000
vt 0.504581 0.807329
vt 0.523194 0.837111
vt 0.625000 1.000000
vt 0.625000 1.000000
vt 0.625000 1.000000
vt 0.625000 1.000000
vt 0.625000 1.000000
vt 0.171169 0.273871
vt 0.453798 0.726076
vt 0.044971 0.071954
vt 0.044360 0.070976
vt 0.012983 0.020773
vt 0.000000 0.000000
vt 0.000000 0.000000
vt 0.000000 0.000000
vt 0.000000 0.000000
vt 0.053856 0.086169
vt 0.025494 0.040790
vt 0.016455 0.026329
vt 0.004815 0.007704
vt 0.625000 0.750000
vt 0.375000 0.750000
vt 0.375000 1.000000
vt 0.625000 1.000000
vt 0.625000 1.000000
vt 0.625000 1.000000
vt 0.625000 1.000000
vt 0.625000 1.000000
vt 0.625000 1.000000
vt 0.625000 1.000000
vt 0.625000 1.000000
vt 0.625000 1.000000
vt 0.625000 1.000000
vt 0.625000 1.000000
vt 0.625000 1.000000
vt 0.625000 1.000000
vt 0.000000 0.000000
vt 0.000000 0.000000
vt 0.000000 0.000000
vt 0.000000 0.000000
vt 0.000000 0.000000
vt 0.000000 0.000000
vt -0.005539 -0.008863
vt 0.143496 0.229594
vt 0.046477 0.074363
vt 0.506375 0.810200
vn 0.0000 -0.0000 1.0000
vn -0.0000 0.6856 0.7280
vn -0.4848 -0.4848 0.7280
vn 0.0000 0.2279 0.9737
vn -0.9569 -0.0741 0.2808
vn -0.6583 0.0000 0.7528
vn -0.0000 -0.6856 0.7280
vn 0.1841 -0.6950 0.6950
vn -0.4848 0.4848 0.7280
vn 0.3803 -0.5704 0.7280
vn 0.5358 0.1072 0.8375
vn 0.0000 0.5464 0.8375
vn 0.0000 -0.5464 0.8375
vn -0.5358 -0.1072 0.8375
vn 0.1841 0.6950 0.6950
vn 0.2080 0.9464 0.2470
vn -0.8408 -0.3483 0.4145
vn -0.8408 0.3483 0.4145
vn 0.0000 -0.7071 0.7071
vn 0.0000 0.7071 0.7071
vn 0.1587 -0.2145 0.9637
vn -0.9645 0.1868 0.1868
vn -0.9645 -0.1868 0.1868
vn -0.9663 0.2489 0.0654
vn -0.2450 0.3228 -0.9142
vn -0.2423 -0.6860 -0.6860
vn -0.2388 -0.9415 -0.2378
vn -0.2423 0.6860 -0.6860
vn 0.7992 0.4277 0.4222
vn 0.7992 -0.4277 0.4222
vn 0.8817 -0.4719 0.0000
vn 0.2400 0.7927 0.5604
vn 0.2898 0.9571 0.0000
vn 0.3803 0.5704 0.7280
vn 0.3688 0.0000 0.9295
vn 0.6856 0.0000 0.7280
vn -0.2052 0.3834 0.9005
vn 0.3460 0.3460 0.8721
vn -0.0000 0.3688 0.9295
vn -0.2052 -0.3834 0.9005
vn 0.3460 -0.3460 0.8721
vn 0.0000 -0.3688 0.9295
vn 1.0000 0.0000 0.0000
vn 0.8817 0.4719 0.0000
vn 0.5547 -0.8321 0.0000
vn 0.9806 0.1961 0.0000
vn 0.0000 -1.0000 0.0000
vn 0.0000 1.0000 0.0000
vn -0.9806 -0.1961 0.0000
vn 0.5547 0.8321 -0.0000
vn 0.0000 0.9696 0.2449
vn -0.2388 0.9415 -0.2378
vn -0.9663 -0.2489 0.0654
vn 0.2080 -0.9464 0.2470
vn 0.0000 -0.9696 0.2449
vn -0.6879 -0.7234 0.0586
vn -0.6879 0.7234 0.0586
vn 0.9877 -0.1562 0.0000
vn -0.8728 0.4880 0.0000
vn -0.7071 -0.7071 0.0000
vn 0.8532 -0.5217 0.0000
vn -0.9851 0.1718 0.0000
vn -1.0000 0.0000 0.0000
vn -0.2450 -0.3228 -0.9142
vn 0.1587 0.2145 0.9637
vn -0.9569 0.0741 0.2808
vn 0.0000 -0.2279 0.9737
vn 0.0000 -0.0000 -1.0000
vn -0.0000 0.6856 -0.7280
vn -0.4848 -0.4848 -0.7280
vn 0.0000 0.2279 -0.9737
vn -0.9569 -0.0741 -0.2808
vn -0.6583 0.0000 -0.7528
vn -0.0000 -0.6856 -0.7280
vn 0.1841 -0.6950 -0.6950
vn -0.4848 0.4848 -0.7280
vn 0.3803 -0.5704 -0.7280
vn 0.5358 0.1072 -0.8375
vn 0.0000 0.5464 -0.8375
vn 0.0000 -0.5464 -0.8375
vn -0.5358 -0.1072 -0.8375
vn 0.1841 0.6950 -0.6950
vn 0.2080 0.9464 -0.2470
vn -0.8408 -0.3483 -0.4145
vn -0.8408 0.3483 -0.4145
vn 0.0000 -0.7071 -0.7071
vn 0.0000 0.7071 -0.7071
vn 0.1587 -0.2145 -0.9637
vn -0.9645 0.1868 -0.1868
vn -0.9645 -0.1868 -0.1868
vn -0.9663 0.2489 -0.0654
vn -0.2450 0.3228 0.9142
vn -0.2423 -0.6860 0.6860
vn -0.2388 -0.9415 0.2378
vn -0.2423 0.6860 0.6860
vn 0.7992 0.4277 -0.4222
vn 0.7992 -0.4277 -0.4222
vn 0.2400 0.7927 -0.5604
vn 0.3803 0.5704 -0.7280
vn 0.3688 0.0000 -0.9295
vn 0.6856 0.0000 -0.7280
vn -0.2052 0.3834 -0.9005
vn 0.3460 0.3460 -0.8721
vn -0.0000 0.3688 -0.9295
vn -0.2052 -0.3834 -0.9005
vn 0.3460 -0.3460 -0.8721
vn 0.0000 -0.3688 -0.9295
vn 0.0000 0.9696 -0.2449
vn -0.2388 0.9415 0.2378
vn -0.9663 -0.2489 -0.0654
vn 0.2080 -0.9464 -0.2470
vn 0.0000 -0.9696 -0.2449
vn -0.6879 -0.7234 -0.0586
vn -0.6879 0.7234 -0.0586
vn -0.2450 -0.3228 0.9142
vn 0.1587 0.2145 -0.9637
vn -0.9569 0.0741 -0.2808
vn 0.0000 -0.2279 -0.9737
usemtl Material
s off
f 1/1/1 16/2/1 15/3/1 4/4/1
f 3/5/1 2/6/1 5/7/1 6/8/1
f 60/9/2 54/10/2 52/11/2 17/12/2 62/13/2
f 62/13/2 17/12/2 14/14/2 2/6/2 64/15/2
f 12/16/1 11/17/1 10/18/1 9/19/1
f 7/20/1 8/21/1 11/17/1 12/16/1
f 6/8/3 32/22/3 33/23/3 13/24/3 3/5/3
f 72/25/4 34/26/4 23/27/4 73/28/4
f 71/29/5 74/30/5 39/31/5 27/32/5
f 5/7/6 37/33/6 34/26/6 72/25/6 31/34/6 32/22/6 6/8/6
f 3/5/7 13/24/7 20/35/7 69/36/7 70/37/7
f 25/38/8 27/32/8 24/39/8 26/40/8
f 2/6/9 14/14/9 36/41/9 37/33/9 5/7/9
f 2/6/1 3/5/1 70/37/1 68/42/1 63/43/1 64/15/1
f 65/44/10 18/45/10 50/46/10 51/47/10 58/48/10 57/49/10 67/50/10
f 57/49/1 56/51/1 61/52/1 59/53/1 66/54/1 67/50/1
f 1/1/11 19/55/11 18/56/11 16/2/11
f 16/2/12 18/56/12 20/35/12 15/3/12
f 4/4/13 21/57/13 19/55/13 1/1/13
f 15/3/14 20/35/14 21/57/14 4/4/14
f 22/58/15 29/59/15 28/60/15 23/27/15
f 160/61/16 159/62/16 29/59/16 22/58/16
f 30/63/17 33/23/17 32/22/17 31/34/17
f 34/26/18 37/33/18 36/41/18 35/64/18
f 25/38/19 26/40/19 30/63/19 31/34/19
f 34/26/20 35/64/20 22/58/20 23/27/20
f 73/28/21 71/29/21 27/32/21 25/38/21
f 29/59/22 41/65/22 40/66/22 28/60/22
f 27/32/23 39/31/23 38/67/23 24/39/23
f 159/62/24 162/68/24 41/65/24 29/59/24
f 74/30/25 75/69/25 43/70/25 39/31/25
f 41/65/26 45/71/26 44/72/26 40/66/26
f 162/68/27 163/73/27 45/71/27 41/65/27
f 39/31/28 43/70/28 42/74/28 38/67/28
f 46/75/29 48/76/29 47/77/29
f 49/78/30 51/47/30 50/46/30
f 155/79/31 156/80/31 49/78/31 50/46/31
f 52/11/32 54/10/32 53/81/32
f 157/82/33 158/83/33 52/11/33 53/81/33
f 55/84/34 48/76/34 46/75/34 53/81/34 54/10/34 60/9/34 61/52/34 56/51/34
f 57/49/35 58/48/35 55/84/35 56/51/35
f 58/48/36 51/47/36 49/78/36 47/77/36 48/76/36 55/84/36
f 59/53/37 61/52/37 60/85/37
f 62/13/38 64/15/38 63/86/38
f 62/13/39 63/43/39 59/53/39 60/9/39
f 66/54/1 59/53/1 63/43/1 68/42/1
f 65/44/40 67/50/40 66/87/40
f 68/42/41 70/37/41 69/88/41
f 68/42/42 69/36/42 65/44/42 66/54/42
f 69/36/7 20/35/7 18/45/7 65/44/7
f 49/78/43 156/80/43 154/89/43 47/77/43
f 46/75/44 47/77/44 154/89/44 153/90/44
f 18/45/45 152/91/45 155/79/45 50/46/45
f 19/55/46 147/92/46 152/93/46 18/56/46
f 13/24/47 151/94/47 150/95/47 20/35/47
f 52/11/48 158/83/48 146/96/48 17/12/48
f 20/35/49 150/95/49 148/97/49 21/57/49
f 17/12/48 146/96/48 149/98/48 14/14/48
f 21/57/47 148/97/47 147/92/47 19/55/47
f 46/75/50 153/90/50 157/82/50 53/81/50
f 35/64/51 161/99/51 160/61/51 22/58/51
f 38/67/52 42/74/52 168/100/52 167/101/52
f 24/39/53 38/67/53 167/101/53 164/102/53
f 26/40/54 24/39/54 164/102/54 165/103/54
f 26/40/55 165/103/55 166/104/55 30/63/55
f 30/63/56 166/104/56 151/94/56 13/24/56 33/23/56
f 14/14/57 149/98/57 161/99/57 35/64/57 36/41/57
f 12/16/58 171/105/58 173/106/58 7/20/58
f 11/17/59 169/107/59 174/108/59 10/18/59
f 10/18/60 174/108/60 172/109/60 9/19/60
f 9/19/61 172/109/61 171/105/61 12/16/61
f 8/21/62 170/110/62 169/107/62 11/17/62
f 42/74/63 43/70/63 75/69/63 44/72/63 45/71/63 163/73/63 168/100/63
f 40/66/64 44/72/64 75/69/64 74/30/64
f 23/27/65 28/60/65 71/29/65 73/28/65
f 28/60/66 40/66/66 74/30/66 71/29/66
f 31/34/67 72/25/67 73/28/67 25/38/67
f 76/111/68 79/112/68 90/113/68 91/114/68
f 78/115/68 81/116/68 80/117/68 77/118/68
f 135/119/69 137/120/69 92/121/69 127/122/69 129/123/69
f 137/120/69 139/124/69 77/118/69 89/125/69 92/121/69
f 87/126/68 84/127/68 85/128/68 86/129/68
f 82/130/68 87/126/68 86/129/68 83/131/68
f 81/116/70 78/115/70 88/132/70 108/133/70 107/134/70
f 176/135/71 177/136/71 98/137/71 109/138/71
f 175/139/72 102/140/72 114/141/72 178/142/72
f 80/117/73 81/116/73 107/134/73 106/143/73 176/135/73 109/138/73 112/144/73
f 78/115/74 145/145/74 144/146/74 95/147/74 88/132/74
f 100/148/75 101/149/75 99/150/75 102/140/75
f 77/118/76 80/117/76 112/144/76 111/151/76 89/125/76
f 77/118/68 139/124/68 138/152/68 143/153/68 145/145/68 78/115/68
f 140/154/77 142/155/77 132/156/77 133/157/77 126/158/77 125/159/77 93/160/77
f 132/156/68 142/155/68 141/161/68 134/162/68 136/163/68 131/164/68
f 76/111/78 91/114/78 93/165/78 94/166/78
f 91/114/79 90/113/79 95/147/79 93/165/79
f 79/112/80 76/111/80 94/166/80 96/167/80
f 90/113/81 79/112/81 96/167/81 95/147/81
f 97/168/82 98/137/82 103/169/82 104/170/82
f 160/61/83 97/168/83 104/170/83 159/62/83
f 105/171/84 106/143/84 107/134/84 108/133/84
f 109/138/85 110/172/85 111/151/85 112/144/85
f 100/148/86 106/143/86 105/171/86 101/149/86
f 109/138/87 98/137/87 97/168/87 110/172/87
f 177/136/88 100/148/88 102/140/88 175/139/88
f 104/170/89 103/169/89 115/173/89 116/174/89
f 102/140/90 99/150/90 113/175/90 114/141/90
f 159/62/91 104/170/91 116/174/91 162/68/91
f 178/142/92 114/141/92 118/176/92 179/177/92
f 116/174/93 115/173/93 119/178/93 120/179/93
f 162/68/94 116/174/94 120/179/94 163/73/94
f 114/141/95 113/175/95 117/180/95 118/176/95
f 121/181/96 122/182/96 123/183/96
f 124/184/97 125/159/97 126/158/97
f 155/79/31 125/159/31 124/184/31 156/80/31
f 127/122/98 128/185/98 129/123/98
f 157/82/33 128/185/33 127/122/33 158/83/33
f 130/186/99 131/164/99 136/163/99 135/119/99 129/123/99 128/185/99 121/181/99 123/183/99
f 132/156/100 131/164/100 130/186/100 133/157/100
f 133/157/101 130/186/101 123/183/101 122/182/101 124/184/101 126/158/101
f 134/162/102 135/187/102 136/163/102
f 137/120/103 138/188/103 139/124/103
f 137/120/104 135/119/104 134/162/104 138/152/104
f 141/161/68 143/153/68 138/152/68 134/162/68
f 140/154/105 141/189/105 142/155/105
f 143/153/106 144/190/106 145/145/106
f 143/153/107 141/161/107 140/154/107 144/146/107
f 144/146/74 140/154/74 93/160/74 95/147/74
f 124/184/43 122/182/43 154/89/43 156/80/43
f 121/181/44 153/90/44 154/89/44 122/182/44
f 93/160/45 125/159/45 155/79/45 152/91/45
f 94/166/46 93/165/46 152/93/46 147/92/46
f 88/132/47 95/147/47 150/95/47 151/94/47
f 127/122/48 92/121/48 146/96/48 158/83/48
f 95/147/49 96/167/49 148/97/49 150/95/49
f 92/121/48 89/125/48 149/98/48 146/96/48
f 96/167/47 94/166/47 147/92/47 148/97/47
f 121/181/50 128/185/50 157/82/50 153/90/50
f 110/172/108 97/168/108 160/61/108 161/99/108
f 113/175/109 167/101/109 168/100/109 117/180/109
f 99/150/110 164/102/110 167/101/110 113/175/110
f 101/149/111 165/103/111 164/102/111 99/150/111
f 101/149/112 105/171/112 166/104/112 165/103/112
f 105/171/113 108/133/113 88/132/113 151/94/113 166/104/113
f 89/125/114 111/151/114 110/172/114 161/99/114 149/98/114
f 87/126/58 82/130/58 173/106/58 171/105/58
f 86/129/59 85/128/59 174/108/59 169/107/59
f 85/128/60 84/127/60 172/109/60 174/108/60
f 84/127/61 87/126/61 171/105/61 172/109/61
f 83/131/62 86/129/62 169/107/62 170/110/62
f 117/180/63 168/100/63 163/73/63 120/179/63 119/178/63 179/177/63 118/176/63
f 115/173/115 178/142/115 179/177/115 119/178/115
f 98/137/116 177/136/116 175/139/116 103/169/116
f 103/169/117 175/139/117 178/142/117 115/173/117
f 106/143/118 100/148/118 177/136/118 176/135/118
