# Blender v2.91.0 OBJ File: 'test1.blend'
# www.blender.org
mtllib road-barrier.mtl
o Plane.002_Plane.003
v 0.000000 1.495170 -0.317823
v -0.500000 1.495170 -0.317823
v 0.500000 1.495170 -0.317823
v -1.000000 1.495170 -0.317823
v 1.500000 1.978133 -0.188414
v 1.000000 1.978133 -0.188414
v 1.000000 1.495170 -0.317823
v 1.500000 1.495170 -0.317823
v 1.500000 0.770726 -0.511937
v 1.000000 0.770726 -0.511937
v 1.000000 1.253689 -0.382527
v 1.500000 1.253689 -0.382527
v 0.000000 0.770726 -0.511937
v -1.500000 0.770726 -0.511937
v 0.500000 1.253689 -0.382527
v 0.500000 0.770726 -0.511937
v -0.500000 0.770726 -0.511937
v -1.000000 0.770726 -0.511937
v 0.000000 1.253689 -0.382527
v -0.500000 1.253689 -0.382527
v -1.500000 1.253689 -0.382527
v -1.000000 1.253689 -0.382527
v -1.500000 1.495170 -0.317823
v 0.500000 1.978133 -0.188414
v -0.500000 1.978133 -0.188414
v 0.000000 1.978133 -0.188414
v -1.000000 1.978133 -0.188414
v -1.500000 1.978133 -0.188414
v -0.611195 0.038333 -0.643477
v -0.861195 0.038333 -0.643477
v -0.861195 2.211666 -0.061134
v -0.611195 2.211666 -0.061134
v 0.888805 0.038333 -0.643477
v 0.638805 0.038333 -0.643477
v 0.638805 2.211666 -0.061134
v 0.888805 2.211666 -0.061134
v 0.000000 1.478996 -0.257454
v -0.500000 1.478996 -0.257454
v 0.500000 1.478996 -0.257454
v -1.000000 1.478996 -0.257454
v 1.500000 1.961958 -0.128044
v 1.000000 1.961958 -0.128044
v 1.000000 1.478996 -0.257454
v 1.500000 1.478996 -0.257454
v 1.500000 0.754551 -0.451567
v 1.000000 0.754551 -0.451567
v 1.000000 1.237514 -0.322158
v 1.500000 1.237514 -0.322158
v 0.000000 0.754551 -0.451567
v -1.500000 0.754551 -0.451567
v 0.500000 1.237514 -0.322158
v 0.500000 0.754551 -0.451567
v -0.500000 0.754551 -0.451567
v -1.000000 0.754551 -0.451567
v 0.000000 1.237514 -0.322158
v -0.500000 1.237514 -0.322158
v -1.500000 1.237514 -0.322158
v -1.000000 1.237514 -0.322158
v -1.500000 1.478996 -0.257454
v 0.500000 1.961958 -0.128044
v -0.500000 1.961958 -0.128044
v 0.000000 1.961958 -0.128044
v -1.000000 1.961958 -0.128044
v -1.500000 1.961958 -0.128044
v -0.611195 0.022158 -0.583107
v -0.861195 0.022158 -0.583107
v -0.861195 2.195492 -0.000764
v -0.611195 2.195492 -0.000764
v 0.888805 0.022158 -0.583107
v 0.638805 0.022158 -0.583107
v 0.638805 2.195492 -0.000764
v 0.888805 2.195492 -0.000764
v 0.000000 1.479566 0.257926
v -0.500000 1.479566 0.257926
v 0.500000 1.479566 0.257926
v -1.000000 1.479566 0.257926
v 1.500000 1.962529 0.128517
v 1.000000 1.962529 0.128517
v 1.000000 1.479566 0.257926
v 1.500000 1.479566 0.257926
v 1.500000 0.755122 0.452042
v 1.000000 0.755122 0.452042
v 1.000000 1.238084 0.322632
v 1.500000 1.238084 0.322632
v 0.000000 0.755122 0.452042
v -1.500000 0.755122 0.452042
v 0.500000 1.238084 0.322632
v 0.500000 0.755122 0.452042
v -0.500000 0.755122 0.452042
v -1.000000 0.755122 0.452042
v 0.000000 1.238084 0.322632
v -0.500000 1.238084 0.322632
v -1.500000 1.238084 0.322632
v -1.000000 1.238084 0.322632
v -1.500000 1.479566 0.257926
v 0.500000 1.962529 0.128517
v -0.500000 1.962529 0.128517
v 0.000000 1.962529 0.128517
v -1.000000 1.962529 0.128517
v -1.500000 1.962529 0.128517
v -0.611195 0.022158 0.581451
v -0.861195 0.022158 0.581451
v -0.861195 2.195492 -0.000892
v -0.611195 2.195492 -0.000892
v 0.888805 0.022158 0.581451
v 0.638805 0.022158 0.581451
v 0.638805 2.195492 -0.000892
v 0.888805 2.195492 -0.000892
v 0.000000 1.495741 0.318296
v -0.500000 1.495741 0.318296
v 0.500000 1.495741 0.318296
v -1.000000 1.495741 0.318296
v 1.500000 1.978703 0.188886
v 1.000000 1.978703 0.188886
v 1.000000 1.495741 0.318296
v 1.500000 1.495741 0.318296
v 1.500000 0.771296 0.512411
v 1.000000 0.771296 0.512411
v 1.000000 1.254259 0.383001
v 1.500000 1.254259 0.383001
v 0.000000 0.771296 0.512411
v -1.500000 0.771296 0.512411
v 0.500000 1.254259 0.383001
v 0.500000 0.771296 0.512411
v -0.500000 0.771296 0.512411
v -1.000000 0.771296 0.512411
v 0.000000 1.254259 0.383001
v -0.500000 1.254259 0.383001
v -1.500000 1.254259 0.383001
v -1.000000 1.254259 0.383001
v -1.500000 1.495741 0.318296
v 0.500000 1.978703 0.188886
v -0.500000 1.978703 0.188886
v 0.000000 1.978703 0.188886
v -1.000000 1.978703 0.188886
v -1.500000 1.978703 0.188886
v -0.611195 0.038333 0.641821
v -0.861195 0.038333 0.641821
v -0.861195 2.211666 0.059478
v -0.611195 2.211666 0.059478
v 0.888805 0.038333 0.641821
v 0.638805 0.038333 0.641821
v 0.638805 2.211666 0.059478
v 0.888805 2.211666 0.059478
vt 0.015674 0.421924
vt 0.031201 0.421924
vt 0.031201 0.437451
vt 0.015674 0.437451
vt 0.000049 0.421924
vt 0.015576 0.421924
vt 0.015576 0.437451
vt 0.000049 0.437451
vt 0.000049 0.421924
vt 0.015576 0.421924
vt 0.015576 0.437451
vt 0.000049 0.437451
vt 0.015674 0.421924
vt 0.031201 0.421924
vt 0.031201 0.437451
vt 0.015674 0.437451
vt 0.031299 0.421924
vt 0.046826 0.421924
vt 0.046826 0.437451
vt 0.031299 0.437451
vt 0.046924 0.421924
vt 0.062451 0.421924
vt 0.062451 0.437451
vt 0.046924 0.437451
vt 0.078076 0.421924
vt 0.078076 0.437451
vt 0.078174 0.421924
vt 0.093701 0.421924
vt 0.093701 0.437451
vt 0.078174 0.437451
vt 0.031299 0.421924
vt 0.046826 0.421924
vt 0.046826 0.437451
vt 0.031299 0.437451
vt 0.046924 0.421924
vt 0.062451 0.421924
vt 0.062451 0.437451
vt 0.046924 0.437451
vt 0.078076 0.421924
vt 0.078076 0.437451
vt 0.078174 0.421924
vt 0.093701 0.421924
vt 0.093701 0.437451
vt 0.078174 0.437451
vt 0.000049 0.406299
vt 0.015576 0.406299
vt 0.015576 0.421826
vt 0.000049 0.421826
vt 0.000049 0.406299
vt 0.015576 0.406299
vt 0.015576 0.421826
vt 0.000049 0.421826
vt 0.015674 0.421924
vt 0.015674 0.437451
vt 0.031201 0.437451
vt 0.031201 0.421924
vt 0.000049 0.421924
vt 0.000049 0.437451
vt 0.015576 0.437451
vt 0.015576 0.421924
vt 0.000049 0.421924
vt 0.000049 0.437451
vt 0.015576 0.437451
vt 0.015576 0.421924
vt 0.015674 0.421924
vt 0.015674 0.437451
vt 0.031201 0.437451
vt 0.031201 0.421924
vt 0.031299 0.421924
vt 0.031299 0.437451
vt 0.046826 0.437451
vt 0.046826 0.421924
vt 0.046924 0.421924
vt 0.046924 0.437451
vt 0.062451 0.437451
vt 0.062451 0.421924
vt 0.078076 0.437451
vt 0.078076 0.421924
vt 0.078174 0.421924
vt 0.078174 0.437451
vt 0.093701 0.437451
vt 0.093701 0.421924
vt 0.031299 0.421924
vt 0.031299 0.437451
vt 0.046826 0.437451
vt 0.046826 0.421924
vt 0.046924 0.421924
vt 0.046924 0.437451
vt 0.062451 0.437451
vt 0.062451 0.421924
vt 0.078076 0.437451
vt 0.078076 0.421924
vt 0.078174 0.421924
vt 0.078174 0.437451
vt 0.093701 0.437451
vt 0.093701 0.421924
vt 0.000049 0.406299
vt 0.000049 0.421826
vt 0.015576 0.421826
vt 0.015576 0.406299
vt 0.000049 0.406299
vt 0.000049 0.421826
vt 0.015576 0.421826
vt 0.015576 0.406299
vt 0.015674 0.421924
vt 0.031201 0.421924
vt 0.031201 0.437451
vt 0.015674 0.437451
vt 0.000049 0.421924
vt 0.015576 0.421924
vt 0.015576 0.437451
vt 0.000049 0.437451
vt 0.000049 0.421924
vt 0.015576 0.421924
vt 0.015576 0.437451
vt 0.000049 0.437451
vt 0.015674 0.421924
vt 0.031201 0.421924
vt 0.031201 0.437451
vt 0.015674 0.437451
vt 0.031299 0.421924
vt 0.046826 0.421924
vt 0.046826 0.437451
vt 0.031299 0.437451
vt 0.046924 0.421924
vt 0.062451 0.421924
vt 0.062451 0.437451
vt 0.046924 0.437451
vt 0.078076 0.421924
vt 0.078076 0.437451
vt 0.078174 0.421924
vt 0.093701 0.421924
vt 0.093701 0.437451
vt 0.078174 0.437451
vt 0.031299 0.421924
vt 0.046826 0.421924
vt 0.046826 0.437451
vt 0.031299 0.437451
vt 0.046924 0.421924
vt 0.062451 0.421924
vt 0.062451 0.437451
vt 0.046924 0.437451
vt 0.078076 0.421924
vt 0.078076 0.437451
vt 0.078174 0.421924
vt 0.093701 0.421924
vt 0.093701 0.437451
vt 0.078174 0.437451
vt 0.000049 0.406299
vt 0.015576 0.406299
vt 0.015576 0.421826
vt 0.000049 0.421826
vt 0.000049 0.406299
vt 0.015576 0.406299
vt 0.015576 0.421826
vt 0.000049 0.421826
vt 0.015674 0.421924
vt 0.015674 0.437451
vt 0.031201 0.437451
vt 0.031201 0.421924
vt 0.000049 0.421924
vt 0.000049 0.437451
vt 0.015576 0.437451
vt 0.015576 0.421924
vt 0.000049 0.421924
vt 0.000049 0.437451
vt 0.015576 0.437451
vt 0.015576 0.421924
vt 0.015674 0.421924
vt 0.015674 0.437451
vt 0.031201 0.437451
vt 0.031201 0.421924
vt 0.031299 0.421924
vt 0.031299 0.437451
vt 0.046826 0.437451
vt 0.046826 0.421924
vt 0.046924 0.421924
vt 0.046924 0.437451
vt 0.062451 0.437451
vt 0.062451 0.421924
vt 0.078076 0.437451
vt 0.078076 0.421924
vt 0.078174 0.421924
vt 0.078174 0.437451
vt 0.093701 0.437451
vt 0.093701 0.421924
vt 0.031299 0.421924
vt 0.031299 0.437451
vt 0.046826 0.437451
vt 0.046826 0.421924
vt 0.046924 0.421924
vt 0.046924 0.437451
vt 0.062451 0.437451
vt 0.062451 0.421924
vt 0.078076 0.437451
vt 0.078076 0.421924
vt 0.078174 0.421924
vt 0.078174 0.437451
vt 0.093701 0.437451
vt 0.093701 0.421924
vt 0.000049 0.406299
vt 0.000049 0.421826
vt 0.015576 0.421826
vt 0.015576 0.406299
vt 0.000049 0.406299
vt 0.000049 0.421826
vt 0.015576 0.421826
vt 0.015576 0.406299
vn 0.0000 0.2588 -0.9659
vn 0.0000 -0.2588 0.9659
vn -1.0000 -0.0000 0.0000
vn 0.0000 0.9659 0.2588
vn 0.0000 -0.9659 -0.2588
vn 1.0000 0.0000 0.0000
vn 0.0000 -0.2588 -0.9659
vn 0.0000 0.2588 0.9659
vn 0.0000 0.9659 -0.2588
vn 0.0000 -0.9659 0.2588
usemtl spritesheet_col
s off
f 7/1/1 3/2/1 24/3/1 6/4/1
f 8/5/1 7/6/1 6/7/1 5/8/1
f 9/9/1 10/10/1 11/11/1 12/12/1
f 10/13/1 16/14/1 15/15/1 11/16/1
f 16/17/1 13/18/1 19/19/1 15/20/1
f 13/21/1 17/22/1 20/23/1 19/24/1
f 17/22/1 18/25/1 22/26/1 20/23/1
f 18/27/1 14/28/1 21/29/1 22/30/1
f 3/31/1 1/32/1 26/33/1 24/34/1
f 1/35/1 2/36/1 25/37/1 26/38/1
f 2/36/1 4/39/1 27/40/1 25/37/1
f 4/41/1 23/42/1 28/43/1 27/44/1
f 29/45/1 30/46/1 31/47/1 32/48/1
f 33/49/1 34/50/1 35/51/1 36/52/1
f 43/53/2 42/54/2 60/55/2 39/56/2
f 44/57/2 41/58/2 42/59/2 43/60/2
f 45/61/2 48/62/2 47/63/2 46/64/2
f 46/65/2 47/66/2 51/67/2 52/68/2
f 52/69/2 51/70/2 55/71/2 49/72/2
f 49/73/2 55/74/2 56/75/2 53/76/2
f 53/76/2 56/75/2 58/77/2 54/78/2
f 54/79/2 58/80/2 57/81/2 50/82/2
f 39/83/2 60/84/2 62/85/2 37/86/2
f 37/87/2 62/88/2 61/89/2 38/90/2
f 38/90/2 61/89/2 63/91/2 40/92/2
f 40/93/2 63/94/2 64/95/2 59/96/2
f 65/97/2 68/98/2 67/99/2 66/100/2
f 69/101/2 72/102/2 71/103/2 70/104/2
f 28/43/3 23/42/3 59/96/3 64/95/3
f 26/38/4 25/37/4 61/89/4 62/88/4
f 5/8/4 6/7/4 42/59/4 41/58/4
f 7/6/5 8/5/5 44/57/5 43/60/5
f 8/5/6 5/8/6 41/58/6 44/57/6
f 9/9/6 12/12/6 48/62/6 45/61/6
f 10/10/5 9/9/5 45/61/5 46/64/5
f 12/12/4 11/11/4 47/63/4 48/62/4
f 13/18/5 16/17/5 52/69/5 49/72/5
f 21/29/3 14/28/3 50/82/3 57/81/3
f 14/28/5 18/27/5 54/79/5 50/82/5
f 11/16/4 15/15/4 51/67/4 47/66/4
f 16/14/5 10/13/5 46/65/5 52/68/5
f 15/20/4 19/19/4 55/71/4 51/70/4
f 19/24/4 20/23/4 56/75/4 55/74/4
f 17/22/5 13/21/5 49/73/5 53/76/5
f 22/30/4 21/29/4 57/81/4 58/80/4
f 20/23/4 22/26/4 58/77/4 56/75/4
f 18/25/5 17/22/5 53/76/5 54/78/5
f 3/2/5 7/1/5 43/53/5 39/56/5
f 1/32/5 3/31/5 39/83/5 37/86/5
f 6/4/4 24/3/4 60/55/4 42/54/4
f 2/36/5 1/35/5 37/87/5 38/90/5
f 24/34/4 26/33/4 62/85/4 60/84/4
f 25/37/4 27/40/4 63/91/4 61/89/4
f 4/39/5 2/36/5 38/90/5 40/92/5
f 23/42/5 4/41/5 40/93/5 59/96/5
f 27/44/4 28/43/4 64/95/4 63/94/4
f 29/45/6 32/48/6 68/98/6 65/97/6
f 30/46/5 29/45/5 65/97/5 66/100/5
f 31/47/3 30/46/3 66/100/3 67/99/3
f 32/48/4 31/47/4 67/99/4 68/98/4
f 33/49/6 36/52/6 72/102/6 69/101/6
f 34/50/5 33/49/5 69/101/5 70/104/5
f 35/51/3 34/50/3 70/104/3 71/103/3
f 36/52/4 35/51/4 71/103/4 72/102/4
f 79/105/7 75/106/7 96/107/7 78/108/7
f 80/109/7 79/110/7 78/111/7 77/112/7
f 81/113/7 82/114/7 83/115/7 84/116/7
f 82/117/7 88/118/7 87/119/7 83/120/7
f 88/121/7 85/122/7 91/123/7 87/124/7
f 85/125/7 89/126/7 92/127/7 91/128/7
f 89/126/7 90/129/7 94/130/7 92/127/7
f 90/131/7 86/132/7 93/133/7 94/134/7
f 75/135/7 73/136/7 98/137/7 96/138/7
f 73/139/7 74/140/7 97/141/7 98/142/7
f 74/140/7 76/143/7 99/144/7 97/141/7
f 76/145/7 95/146/7 100/147/7 99/148/7
f 101/149/7 102/150/7 103/151/7 104/152/7
f 105/153/7 106/154/7 107/155/7 108/156/7
f 115/157/8 114/158/8 132/159/8 111/160/8
f 116/161/8 113/162/8 114/163/8 115/164/8
f 117/165/8 120/166/8 119/167/8 118/168/8
f 118/169/8 119/170/8 123/171/8 124/172/8
f 124/173/8 123/174/8 127/175/8 121/176/8
f 121/177/8 127/178/8 128/179/8 125/180/8
f 125/180/8 128/179/8 130/181/8 126/182/8
f 126/183/8 130/184/8 129/185/8 122/186/8
f 111/187/8 132/188/8 134/189/8 109/190/8
f 109/191/8 134/192/8 133/193/8 110/194/8
f 110/194/8 133/193/8 135/195/8 112/196/8
f 112/197/8 135/198/8 136/199/8 131/200/8
f 137/201/8 140/202/8 139/203/8 138/204/8
f 141/205/8 144/206/8 143/207/8 142/208/8
f 100/147/3 95/146/3 131/200/3 136/199/3
f 98/142/9 97/141/9 133/193/9 134/192/9
f 77/112/9 78/111/9 114/163/9 113/162/9
f 79/110/10 80/109/10 116/161/10 115/164/10
f 80/109/6 77/112/6 113/162/6 116/161/6
f 81/113/6 84/116/6 120/166/6 117/165/6
f 82/114/10 81/113/10 117/165/10 118/168/10
f 84/116/9 83/115/9 119/167/9 120/166/9
f 85/122/10 88/121/10 124/173/10 121/176/10
f 93/133/3 86/132/3 122/186/3 129/185/3
f 86/132/10 90/131/10 126/183/10 122/186/10
f 83/120/9 87/119/9 123/171/9 119/170/9
f 88/118/10 82/117/10 118/169/10 124/172/10
f 87/124/9 91/123/9 127/175/9 123/174/9
f 91/128/9 92/127/9 128/179/9 127/178/9
f 89/126/10 85/125/10 121/177/10 125/180/10
f 94/134/9 93/133/9 129/185/9 130/184/9
f 92/127/9 94/130/9 130/181/9 128/179/9
f 90/129/10 89/126/10 125/180/10 126/182/10
f 75/106/10 79/105/10 115/157/10 111/160/10
f 73/136/10 75/135/10 111/187/10 109/190/10
f 78/108/9 96/107/9 132/159/9 114/158/9
f 74/140/10 73/139/10 109/191/10 110/194/10
f 96/138/9 98/137/9 134/189/9 132/188/9
f 97/141/9 99/144/9 135/195/9 133/193/9
f 76/143/10 74/140/10 110/194/10 112/196/10
f 95/146/10 76/145/10 112/197/10 131/200/10
f 99/148/9 100/147/9 136/199/9 135/198/9
f 101/149/6 104/152/6 140/202/6 137/201/6
f 102/150/10 101/149/10 137/201/10 138/204/10
f 103/151/3 102/150/3 138/204/3 139/203/3
f 104/152/9 103/151/9 139/203/9 140/202/9
f 105/153/6 108/156/6 144/206/6 141/205/6
f 106/154/10 105/153/10 141/205/10 142/208/10
f 107/155/3 106/154/3 142/208/3 143/207/3
f 108/156/9 107/155/9 143/207/9 144/206/9
