# Blender v2.91.0 OBJ File: 'silo.blend'
# www.blender.org
mtllib silo_colonly.mtl
o CollisionMesh_Plane
v 3.000000 5.065330 0.000001
v 3.000000 0.000000 0.000001
v 2.598077 5.065330 -1.499998
v 2.598077 0.000000 -1.499998
v 1.500002 5.065330 -2.598075
v 1.500002 0.000000 -2.598075
v -0.000000 5.065330 -3.000000
v 0.000000 0.000000 -3.000000
v -1.500000 5.065330 -2.598076
v -1.500000 0.000000 -2.598076
v -2.598076 5.065329 -1.500000
v -2.598077 0.000000 -1.500000
v -3.000000 5.065330 0.000000
v -3.000000 0.000000 0.000000
v -2.598076 5.065330 1.500000
v -2.598076 0.000000 1.500000
v -1.500000 5.065330 2.598076
v -1.500000 0.000001 2.598076
v -0.000001 5.065330 3.000000
v -0.000000 0.000000 3.000000
v 1.500000 5.065330 2.598076
v 1.500000 0.000000 2.598076
v 2.598076 5.065330 1.500001
v 2.598076 0.000000 1.500001
v 2.663812 5.414840 0.000001
v 2.306930 5.414840 -1.331905
v 1.331908 5.414840 -2.306928
v -0.000000 5.414840 -2.663813
v -1.331906 5.414840 -2.306929
v -2.306930 5.414840 -1.331906
v -2.663813 5.414840 0.000000
v -2.306929 5.414840 1.331907
v -1.331906 5.414841 2.306929
v -0.000001 5.414841 2.663812
v 1.331906 5.414841 2.306929
v 2.306929 5.414840 1.331907
v 0.000000 5.414841 0.000000
v -0.000000 0.000000 0.000000
vt 0.000000 0.000000
vt 1.000000 0.000000
vt 1.000000 1.000000
vt 0.000000 1.000000
vt 1.000000 1.000000
vt 0.000000 1.000000
vt 1.000000 1.000000
vt 0.000000 1.000000
vt 1.000000 1.000000
vt 0.000000 1.000000
vt 1.000000 1.000000
vt 0.000000 1.000000
vt 1.000000 1.000000
vt 0.000000 1.000000
vt 1.000000 1.000000
vt 0.000000 1.000000
vt 1.000000 1.000000
vt 0.000000 1.000000
vt 1.000000 1.000000
vt 0.000000 1.000000
vt 1.000000 1.000000
vt 0.000000 1.000000
vt 1.000000 1.000000
vt 0.000000 1.000000
vt 0.000000 1.000000
vt 0.000000 0.000000
vt 0.000000 1.000000
vt 0.000000 1.000000
vt 0.000000 1.000000
vt 0.000000 1.000000
vt 0.000000 1.000000
vt 0.000000 1.000000
vt 0.000000 1.000000
vt 0.000000 1.000000
vt 0.000000 1.000000
vt 0.000000 1.000000
vt 0.000000 0.000000
vt 0.000000 1.000000
vt 1.000000 1.000000
vt 1.000000 0.000000
vn 0.9659 0.0000 -0.2588
vn 0.7071 0.0000 -0.7071
vn 0.2588 0.0000 -0.9659
vn -0.2588 0.0000 -0.9659
vn -0.7071 0.0000 -0.7071
vn -0.9659 0.0000 -0.2588
vn -0.9659 0.0000 0.2588
vn -0.7071 0.0000 0.7071
vn -0.2588 0.0000 0.9659
vn 0.2588 0.0000 0.9659
vn 0.7071 0.0000 0.7071
vn 0.7076 0.6807 -0.1896
vn -0.5180 0.6807 0.5180
vn -0.7076 0.6807 0.1896
vn -0.7076 0.6807 -0.1896
vn -0.5180 0.6807 -0.5180
vn -0.1896 0.6807 -0.7076
vn 0.1896 0.6807 -0.7076
vn 0.5180 0.6807 0.5180
vn 0.5180 0.6807 -0.5180
vn 0.1896 0.6807 0.7076
vn -0.1896 0.6807 0.7076
vn 0.9644 0.0567 0.2584
vn 0.0000 1.0000 0.0000
vn -0.0000 -1.0000 0.0000
usemtl None
s off
f 1/1/1 2/2/1 4/3/1 3/4/1
f 3/4/2 4/3/2 6/5/2 5/6/2
f 5/6/3 6/5/3 8/7/3 7/8/3
f 7/8/4 8/7/4 10/9/4 9/10/4
f 9/10/5 10/9/5 12/11/5 11/12/5
f 11/12/6 12/11/6 14/13/6 13/14/6
f 13/14/7 14/13/7 16/15/7 15/16/7
f 15/16/8 16/15/8 18/17/8 17/18/8
f 17/18/9 18/17/9 20/19/9 19/20/9
f 19/20/10 20/19/10 22/21/10 21/22/10
f 21/22/11 22/21/11 24/23/11 23/24/11
f 1/1/12 3/4/12 26/25/12 25/26/12
f 15/16/13 17/18/13 33/27/13 32/28/13
f 13/14/14 15/16/14 32/28/14 31/29/14
f 11/12/15 13/14/15 31/29/15 30/30/15
f 9/10/16 11/12/16 30/30/16 29/31/16
f 7/8/17 9/10/17 29/31/17 28/32/17
f 5/6/18 7/8/18 28/32/18 27/33/18
f 21/22/19 23/24/19 36/34/19 35/35/19
f 3/4/20 5/6/20 27/33/20 26/25/20
f 19/20/21 21/22/21 35/35/21 34/36/21
f 17/18/22 19/20/22 34/36/22 33/27/22
f 1/1/23 25/26/23 36/34/23 23/24/23 24/23/23 2/2/23
f 25/26/24 26/25/24 37/37/24
f 36/34/24 25/26/24 37/38/24
f 32/28/24 33/27/24 37/38/24
f 29/31/24 30/30/24 37/38/24
f 26/25/24 27/33/24 37/38/24
f 33/27/24 34/36/24 37/38/24
f 30/30/24 31/29/24 37/38/24
f 27/33/24 28/32/24 37/38/24
f 34/36/24 35/35/24 37/38/24
f 31/29/24 32/28/24 37/38/24
f 28/32/24 29/31/24 37/38/24
f 35/35/24 36/34/24 37/38/24
f 14/13/25 12/11/25 38/39/25
f 12/11/25 10/9/25 38/39/25
f 10/9/25 8/7/25 38/39/25
f 8/7/25 6/5/25 38/39/25
f 24/23/25 22/21/25 38/39/25
f 6/5/25 4/3/25 38/39/25
f 22/21/25 20/19/25 38/39/25
f 4/3/25 2/2/25 38/39/25
f 20/19/25 18/17/25 38/39/25
f 2/2/25 24/23/25 38/40/25
f 18/17/25 16/15/25 38/39/25
f 16/15/25 14/13/25 38/39/25
