# Blender v2.91.0 OBJ File: 'silo.blend'
# www.blender.org
mtllib silo.mtl
o Circle_Circle.001
v -0.000000 0.000000 -3.000000
v -1.500000 0.000000 -2.598076
v -2.598076 0.000000 -1.500000
v -3.000000 0.000000 0.000000
v -2.598076 0.000000 1.500000
v -1.500000 0.000000 2.598076
v -0.000000 0.000000 3.000000
v 1.500000 0.000000 2.598076
v 2.598076 0.000000 1.500001
v 3.000000 0.000000 0.000001
v 2.598077 0.000000 -1.499998
v 1.500002 0.000000 -2.598075
v 0.000000 5.414840 -2.074656
v -1.037328 5.414840 -1.796705
v -1.796705 5.414840 -1.037328
v -2.074656 5.414840 0.000000
v -1.796705 5.414840 1.037328
v -1.037328 5.414840 1.796705
v -0.000000 5.414840 2.074656
v 1.037328 5.414840 1.796705
v 1.796704 5.414840 1.037329
v 2.074656 5.414840 0.000001
v 1.796705 5.414840 -1.037327
v 1.037329 5.414840 -1.796704
v 0.000000 5.414840 -1.448210
v -0.724105 5.414840 -1.254187
v -1.254187 5.414840 -0.724105
v -1.448210 5.414840 0.000000
v -1.254187 5.414840 0.724105
v -0.724105 5.414840 1.254187
v -0.000000 5.414840 1.448210
v 0.724105 5.414840 1.254187
v 1.254187 5.414840 0.724106
v 1.448210 5.414840 0.000001
v 1.254187 5.414840 -0.724104
v 0.724106 5.414840 -1.254186
v 0.000000 5.414840 -0.760341
v -0.380170 5.414840 -0.658474
v -0.658475 5.414840 -0.380170
v -0.760341 5.414840 0.000000
v -0.658475 5.414840 0.380171
v -0.380171 5.414840 0.658475
v -0.000000 5.414840 0.760341
v 0.380170 5.414840 0.658475
v 0.658475 5.414840 0.380171
v 0.760341 5.414840 0.000001
v 0.658475 5.414840 -0.380170
v 0.380171 5.414840 -0.658474
v 0.000000 5.414839 0.000000
v -0.000000 5.065330 -3.000000
v 0.000000 5.414840 -2.638160
v -1.319080 5.414840 -2.284713
v -1.500000 5.065330 -2.598076
v -2.284714 5.414840 -1.319080
v -2.598076 5.065330 -1.500000
v -2.638160 5.414840 0.000000
v -3.000000 5.065330 0.000000
v -2.284713 5.414840 1.319080
v -2.598076 5.065330 1.500000
v -1.319080 5.414840 2.284713
v -1.500000 5.065330 2.598076
v -0.000000 5.414840 2.638160
v -0.000000 5.065330 3.000000
v 1.319079 5.414840 2.284714
v 1.500000 5.065330 2.598076
v 2.284713 5.414840 1.319081
v 2.598076 5.065330 1.500001
v 2.638160 5.414840 0.000001
v 3.000000 5.065330 0.000001
v 2.284714 5.414840 -1.319078
v 2.598077 5.065330 -1.499998
v 1.319081 5.414840 -2.284713
v 1.500002 5.065330 -2.598075
v -0.676075 5.440242 -1.621393
v -0.956089 5.440242 -1.505407
v -1.072075 5.440242 -1.225393
v -0.956089 5.440242 -0.945378
v -0.676075 5.440242 -0.829392
v -0.396061 5.440242 -0.945378
v -0.280075 5.440242 -1.225393
v -0.396061 5.440242 -1.505407
v -0.676075 5.490242 -1.686243
v -1.001945 5.490242 -1.551263
v -1.136925 5.490242 -1.225392
v -1.001945 5.490242 -0.899522
v -0.676075 5.490242 -0.764542
v -0.350205 5.490242 -0.899522
v -0.215225 5.490242 -1.225393
v -0.350205 5.490242 -1.551263
v -0.676075 5.490242 -1.803851
v -1.085107 5.490242 -1.634425
v -1.254534 5.490242 -1.225392
v -1.085107 5.490242 -0.816360
v -0.676075 5.490242 -0.646934
v -0.267043 5.490242 -0.816360
v -0.097616 5.490242 -1.225392
v -0.267043 5.490242 -1.634425
v -0.676075 5.418862 -1.877864
v -1.137442 5.418862 -1.686759
v -1.328546 5.418862 -1.225393
v -1.137442 5.418862 -0.764026
v -0.676075 5.418862 -0.572921
v -0.214708 5.418862 -0.764026
v -0.023604 5.418862 -1.225393
v -0.214708 5.418862 -1.686759
v -0.676075 5.440242 -1.481679
v -0.857297 5.440242 -1.406615
v -0.932362 5.440242 -1.225393
v -0.857297 5.440242 -1.044170
v -0.676075 5.440242 -0.969106
v -0.494853 5.440242 -1.044170
v -0.419788 5.440242 -1.225393
v -0.494853 5.440242 -1.406615
v -0.676075 5.440242 -1.225393
v -1.500000 2.700963 -2.598076
v -1.500000 1.319761 -2.598076
v -0.000000 1.319761 -3.000000
v -0.000000 2.700963 -3.000000
v 1.500002 1.319761 -2.598075
v 1.500002 2.700963 -2.598075
v -2.598076 2.700963 -1.500000
v -2.598076 1.319761 -1.500000
v -3.000000 2.700963 0.000000
v -3.000000 1.319761 0.000000
v -2.598076 2.700963 1.500000
v -2.598076 1.319761 1.500000
v -1.500000 2.700963 2.598076
v -1.500000 1.319761 2.598076
v -0.000000 2.700963 3.000000
v -0.000000 1.319761 3.000000
v 1.500000 2.700963 2.598076
v 1.500000 1.319761 2.598076
v 2.598076 2.700963 1.500001
v 2.598076 1.319761 1.500001
v 3.000000 2.700963 0.000001
v 3.000000 1.319761 0.000001
v 2.598077 2.700963 -1.499998
v 2.598077 1.319761 -1.499998
v -0.000000 3.883146 -3.000000
v 1.500002 3.883146 -2.598075
v -1.500000 3.883146 -2.598076
v -2.598076 3.883146 -1.500000
v -3.000000 3.883146 0.000000
v -2.598076 3.883146 1.500000
v -1.500000 3.883146 2.598076
v -0.000000 3.883146 3.000000
v 1.500000 3.883146 2.598076
v 2.598076 3.883146 1.500001
v 3.000000 3.883146 0.000001
v 2.598077 3.883146 -1.499998
v -1.500000 5.065330 -2.598076
v -0.000000 5.065330 -3.000000
v 0.000000 5.414840 -2.638160
v -1.319080 5.414840 -2.284713
v -2.598076 5.065330 -1.500000
v -2.284714 5.414840 -1.319080
v -3.000000 5.065330 0.000000
v -2.638160 5.414840 0.000000
v -2.598076 5.065330 1.500000
v -2.284713 5.414840 1.319080
v -1.500000 5.065330 2.598076
v -1.319080 5.414840 2.284713
v -0.000000 5.065330 3.000000
v -0.000000 5.414840 2.638160
v 1.500000 5.065330 2.598076
v 1.319079 5.414840 2.284714
v 2.598076 5.065330 1.500001
v 2.284713 5.414840 1.319081
v 3.000000 5.065330 0.000001
v 2.638160 5.414840 0.000001
v 2.598077 5.065330 -1.499998
v 2.284714 5.414840 -1.319078
v 1.500002 5.065330 -2.598075
v 1.319081 5.414840 -2.284713
v -1.085107 5.490242 -1.634425
v -0.676075 5.490242 -1.803851
v -1.254534 5.490242 -1.225392
v -1.085107 5.490242 -0.816360
v -0.676075 5.490242 -0.646934
v -0.267043 5.490242 -0.816360
v -0.097616 5.490242 -1.225392
v -0.267043 5.490242 -1.634425
vt 0.232422 0.843945
vt 0.232422 0.890430
vt 0.167969 0.890430
vt 0.150391 0.843945
vt 0.236328 0.843945
vt 0.236328 0.890430
vt 0.172070 0.890430
vt 0.154297 0.843945
vt 0.236328 0.843945
vt 0.236328 0.890430
vt 0.172070 0.890430
vt 0.154297 0.843945
vt 0.236328 0.843945
vt 0.236328 0.890430
vt 0.172070 0.890430
vt 0.154297 0.843945
vt 0.232422 0.843945
vt 0.232422 0.890430
vt 0.167969 0.890430
vt 0.150391 0.843945
vt 0.236328 0.843945
vt 0.236328 0.890430
vt 0.172070 0.890430
vt 0.154297 0.843945
vt 0.228516 0.843945
vt 0.228516 0.890430
vt 0.164062 0.890430
vt 0.146484 0.843945
vt 0.228516 0.843945
vt 0.228516 0.890430
vt 0.164062 0.890430
vt 0.146484 0.843945
vt 0.228516 0.843945
vt 0.228516 0.890430
vt 0.164062 0.890430
vt 0.146484 0.843945
vt 0.232422 0.843945
vt 0.232422 0.890430
vt 0.167969 0.890430
vt 0.150391 0.843945
vt 0.232422 0.843945
vt 0.232422 0.890430
vt 0.167969 0.890430
vt 0.150391 0.843945
vt 0.421826 0.703174
vt 0.421826 0.781201
vt 0.343799 0.781201
vt 0.343799 0.703174
vt 0.421826 0.703174
vt 0.421826 0.781201
vt 0.343799 0.781201
vt 0.343799 0.703174
vt 0.421826 0.703174
vt 0.421826 0.781201
vt 0.343799 0.781201
vt 0.343799 0.703174
vt 0.421826 0.703174
vt 0.421826 0.781201
vt 0.343799 0.781201
vt 0.343799 0.703174
vt 0.421826 0.703174
vt 0.421826 0.781201
vt 0.343799 0.781201
vt 0.343799 0.703174
vt 0.421826 0.703174
vt 0.421826 0.781201
vt 0.343799 0.781201
vt 0.343799 0.703174
vt 0.421826 0.703174
vt 0.421826 0.781201
vt 0.343799 0.781201
vt 0.343799 0.703174
vt 0.421826 0.703174
vt 0.421826 0.781201
vt 0.343799 0.781201
vt 0.343799 0.703174
vt 0.421826 0.705291
vt 0.421826 0.779085
vt 0.343799 0.779084
vt 0.343799 0.705290
vt 0.421826 0.703174
vt 0.421826 0.781201
vt 0.343799 0.781201
vt 0.343799 0.703174
vt 0.421826 0.703174
vt 0.421826 0.781201
vt 0.343799 0.781201
vt 0.343799 0.703174
vt 0.421826 0.703174
vt 0.421826 0.781201
vt 0.343799 0.781201
vt 0.343799 0.703174
vt 0.226562 0.843945
vt 0.226562 0.890430
vt 0.181641 0.890430
vt 0.164062 0.843945
vt 0.224609 0.843945
vt 0.224609 0.890430
vt 0.179688 0.890430
vt 0.160156 0.843945
vt 0.226562 0.843945
vt 0.226562 0.890430
vt 0.181641 0.890430
vt 0.164062 0.843945
vt 0.226562 0.843945
vt 0.226562 0.890430
vt 0.181641 0.890430
vt 0.164062 0.843945
vt 0.226562 0.843945
vt 0.226562 0.890430
vt 0.181641 0.890430
vt 0.164062 0.843945
vt 0.218555 0.843945
vt 0.218555 0.890430
vt 0.173828 0.890430
vt 0.154297 0.843945
vt 0.218555 0.843945
vt 0.218555 0.890430
vt 0.173828 0.890430
vt 0.154297 0.843945
vt 0.218555 0.843945
vt 0.218555 0.890430
vt 0.173828 0.890430
vt 0.154297 0.843945
vt 0.224609 0.843945
vt 0.224609 0.890430
vt 0.179688 0.890430
vt 0.160156 0.843945
vt 0.218555 0.843945
vt 0.218555 0.890430
vt 0.173828 0.890430
vt 0.154297 0.843945
vt 0.224609 0.843945
vt 0.224609 0.890430
vt 0.179688 0.890430
vt 0.160156 0.843945
vt 0.224609 0.843945
vt 0.224609 0.890430
vt 0.179688 0.890430
vt 0.160156 0.843945
vt 0.212891 0.843945
vt 0.212891 0.890430
vt 0.189453 0.890430
vt 0.169922 0.843945
vt 0.216797 0.843945
vt 0.216797 0.890430
vt 0.193359 0.890430
vt 0.173828 0.843945
vt 0.212891 0.843945
vt 0.212891 0.890430
vt 0.189453 0.890430
vt 0.169922 0.843945
vt 0.216797 0.843945
vt 0.216797 0.890430
vt 0.193359 0.890430
vt 0.173828 0.843945
vt 0.216797 0.843945
vt 0.216797 0.890430
vt 0.193359 0.890430
vt 0.173828 0.843945
vt 0.216797 0.843945
vt 0.216797 0.890430
vt 0.193359 0.890430
vt 0.173828 0.843945
vt 0.208984 0.843945
vt 0.208984 0.890430
vt 0.185547 0.890430
vt 0.164062 0.843945
vt 0.208984 0.843945
vt 0.208984 0.890430
vt 0.185547 0.890430
vt 0.164062 0.843945
vt 0.208984 0.843945
vt 0.208984 0.890430
vt 0.185547 0.890430
vt 0.164062 0.843945
vt 0.212891 0.843945
vt 0.212891 0.890430
vt 0.189453 0.890430
vt 0.169922 0.843945
vt 0.208984 0.843945
vt 0.208984 0.890430
vt 0.185547 0.890430
vt 0.164062 0.843945
vt 0.212891 0.843945
vt 0.212891 0.890430
vt 0.189453 0.890430
vt 0.169922 0.843945
vt 0.203125 0.843945
vt 0.203125 0.890430
vt 0.179688 0.843945
vt 0.207031 0.843945
vt 0.207031 0.890430
vt 0.183594 0.843945
vt 0.203125 0.843945
vt 0.179688 0.843945
vt 0.207031 0.843945
vt 0.183594 0.843945
vt 0.207031 0.843945
vt 0.183594 0.843945
vt 0.207031 0.843945
vt 0.183594 0.843945
vt 0.197266 0.843945
vt 0.197266 0.890430
vt 0.173828 0.843945
vt 0.197266 0.843945
vt 0.173828 0.843945
vt 0.197266 0.843945
vt 0.173828 0.843945
vt 0.203125 0.843945
vt 0.179688 0.843945
vt 0.197266 0.843945
vt 0.173828 0.843945
vt 0.203125 0.843945
vt 0.179688 0.843945
vt 0.421826 0.719494
vt 0.421826 0.750897
vt 0.343799 0.766766
vt 0.343799 0.737539
vt 0.421826 0.720038
vt 0.421826 0.751441
vt 0.343799 0.767310
vt 0.343799 0.738083
vt 0.421826 0.718552
vt 0.421826 0.749955
vt 0.343799 0.765823
vt 0.343799 0.736597
vt 0.406201 0.711724
vt 0.406201 0.743068
vt 0.343799 0.758907
vt 0.343799 0.729735
vt 0.406201 0.712267
vt 0.406201 0.743612
vt 0.343799 0.759450
vt 0.343799 0.730278
vt 0.421826 0.718552
vt 0.421826 0.749955
vt 0.343799 0.765823
vt 0.343799 0.736597
vt 0.410156 0.703320
vt 0.410156 0.749805
vt 0.326172 0.749805
vt 0.314453 0.703320
vt 0.421826 0.720038
vt 0.421826 0.751441
vt 0.343799 0.767310
vt 0.343799 0.738083
vt 0.421826 0.718552
vt 0.421826 0.749955
vt 0.343799 0.765823
vt 0.343799 0.736597
vt 0.421826 0.719494
vt 0.421826 0.750897
vt 0.343799 0.766766
vt 0.343799 0.737539
vt 0.421826 0.720038
vt 0.421826 0.751441
vt 0.343799 0.767310
vt 0.343799 0.738083
vt 0.421826 0.718552
vt 0.421826 0.749955
vt 0.343799 0.765823
vt 0.343799 0.736597
vt 0.228516 0.843945
vt 0.228516 0.890430
vt 0.164062 0.890430
vt 0.146484 0.843945
vt 0.080078 0.718799
vt 0.080078 0.749951
vt 0.076172 0.749951
vt 0.076172 0.718799
vt 0.080078 0.718799
vt 0.080078 0.749951
vt 0.076172 0.749951
vt 0.076172 0.718799
vt 0.080078 0.718799
vt 0.080078 0.749951
vt 0.076172 0.749951
vt 0.076172 0.718799
vt 0.080078 0.718799
vt 0.080078 0.749951
vt 0.076172 0.749951
vt 0.076172 0.718799
vt 0.080078 0.718799
vt 0.080078 0.749951
vt 0.076172 0.749951
vt 0.076172 0.718799
vt 0.080078 0.718799
vt 0.080078 0.749951
vt 0.076172 0.749951
vt 0.076172 0.718799
vt 0.080078 0.718799
vt 0.080078 0.749951
vt 0.076172 0.749951
vt 0.076172 0.718799
vt 0.080078 0.718799
vt 0.080078 0.749951
vt 0.076172 0.749951
vt 0.076172 0.718799
vt 0.082031 0.718799
vt 0.082031 0.749951
vt 0.076172 0.749951
vt 0.076172 0.718799
vt 0.082031 0.718799
vt 0.082031 0.749951
vt 0.076172 0.749951
vt 0.076172 0.718799
vt 0.082031 0.718799
vt 0.082031 0.749951
vt 0.076172 0.749951
vt 0.076172 0.718799
vt 0.082031 0.718799
vt 0.082031 0.749951
vt 0.076172 0.749951
vt 0.076172 0.718799
vt 0.082031 0.718799
vt 0.082031 0.749951
vt 0.076172 0.749951
vt 0.076172 0.718799
vt 0.082031 0.718799
vt 0.082031 0.749951
vt 0.076172 0.749951
vt 0.076172 0.718799
vt 0.082031 0.718799
vt 0.082031 0.749951
vt 0.076172 0.749951
vt 0.076172 0.718799
vt 0.082031 0.718799
vt 0.082031 0.749951
vt 0.076172 0.749951
vt 0.076172 0.718799
vt 0.082031 0.718799
vt 0.082031 0.749951
vt 0.076172 0.749951
vt 0.076172 0.718799
vt 0.082031 0.718799
vt 0.082031 0.749951
vt 0.076172 0.749951
vt 0.076172 0.718799
vt 0.082031 0.718799
vt 0.082031 0.749951
vt 0.076172 0.749951
vt 0.076172 0.718799
vt 0.082031 0.718799
vt 0.082031 0.749951
vt 0.076172 0.749951
vt 0.076172 0.718799
vt 0.082031 0.718799
vt 0.082031 0.749951
vt 0.076172 0.749951
vt 0.076172 0.718799
vt 0.082031 0.718799
vt 0.082031 0.749951
vt 0.076172 0.749951
vt 0.076172 0.718799
vt 0.082031 0.718799
vt 0.082031 0.749951
vt 0.076172 0.749951
vt 0.076172 0.718799
vt 0.082031 0.718799
vt 0.082031 0.749951
vt 0.076172 0.749951
vt 0.076172 0.718799
vt 0.072266 0.749951
vt 0.072266 0.718799
vt 0.072266 0.749951
vt 0.072266 0.718799
vt 0.072266 0.749951
vt 0.072266 0.718799
vt 0.072266 0.749951
vt 0.072266 0.718799
vt 0.072266 0.749951
vt 0.072266 0.718799
vt 0.072266 0.749951
vt 0.072266 0.718799
vt 0.072266 0.749951
vt 0.072266 0.718799
vt 0.072266 0.749951
vt 0.072266 0.718799
vt 0.083984 0.718799
vt 0.083984 0.749951
vt 0.068359 0.718799
vt 0.083984 0.718799
vt 0.083984 0.749951
vt 0.083984 0.718799
vt 0.083984 0.749951
vt 0.083984 0.718799
vt 0.083984 0.749951
vt 0.083984 0.718799
vt 0.083984 0.749951
vt 0.068359 0.749951
vt 0.083984 0.718799
vt 0.083984 0.749951
vt 0.083984 0.718799
vt 0.083984 0.749951
vt 0.083984 0.718799
vt 0.083984 0.749951
vt 0.421826 0.625049
vt 0.421826 0.703076
vt 0.343799 0.703076
vt 0.343799 0.625049
vt 0.421826 0.703174
vt 0.421826 0.781201
vt 0.343799 0.781201
vt 0.343799 0.703174
vt 0.421826 0.625049
vt 0.421826 0.703076
vt 0.343799 0.703076
vt 0.343799 0.625049
vt 0.421826 0.703174
vt 0.421826 0.781201
vt 0.343799 0.781201
vt 0.343799 0.703174
vt 0.421826 0.625049
vt 0.421826 0.703076
vt 0.343799 0.703076
vt 0.343799 0.625049
vt 0.421826 0.703174
vt 0.421826 0.781201
vt 0.343799 0.781201
vt 0.343799 0.703174
vt 0.421826 0.625049
vt 0.421826 0.703076
vt 0.343799 0.703076
vt 0.343799 0.625049
vt 0.421826 0.703174
vt 0.421826 0.781201
vt 0.343799 0.781201
vt 0.343799 0.703174
vt 0.421826 0.625049
vt 0.421826 0.703076
vt 0.343799 0.703076
vt 0.343799 0.625049
vt 0.421826 0.703174
vt 0.421826 0.781201
vt 0.343799 0.781201
vt 0.343799 0.703174
vt 0.421826 0.625049
vt 0.421826 0.703076
vt 0.343799 0.703076
vt 0.343799 0.625049
vt 0.421826 0.703174
vt 0.421826 0.781201
vt 0.343799 0.781201
vt 0.343799 0.703174
vt 0.421826 0.625049
vt 0.421826 0.703076
vt 0.343799 0.703076
vt 0.343799 0.625049
vt 0.421826 0.703174
vt 0.421826 0.781201
vt 0.343799 0.781201
vt 0.343799 0.703174
vt 0.421826 0.625049
vt 0.421826 0.703076
vt 0.343799 0.703076
vt 0.343799 0.625049
vt 0.421826 0.703174
vt 0.421826 0.781201
vt 0.343799 0.781201
vt 0.343799 0.703174
vt 0.421826 0.625049
vt 0.421826 0.703076
vt 0.343799 0.703076
vt 0.343799 0.625049
vt 0.421826 0.703174
vt 0.421826 0.781201
vt 0.343799 0.781201
vt 0.343799 0.703174
vt 0.421826 0.625049
vt 0.421826 0.703076
vt 0.343799 0.703076
vt 0.343799 0.625049
vt 0.421826 0.703174
vt 0.421826 0.781201
vt 0.343799 0.781201
vt 0.343799 0.703174
vt 0.421826 0.625049
vt 0.421826 0.703076
vt 0.343799 0.703076
vt 0.343799 0.625049
vt 0.421826 0.703174
vt 0.421826 0.781201
vt 0.343799 0.781201
vt 0.343799 0.703174
vt 0.421826 0.625049
vt 0.421826 0.703076
vt 0.343799 0.703076
vt 0.343799 0.625049
vt 0.421826 0.703174
vt 0.421826 0.781201
vt 0.343799 0.781201
vt 0.343799 0.703174
vt 0.421826 0.703174
vt 0.421826 0.781201
vt 0.343799 0.781201
vt 0.343799 0.703174
vt 0.421826 0.703174
vt 0.421826 0.781201
vt 0.343799 0.781201
vt 0.343799 0.703174
vt 0.421826 0.703174
vt 0.421826 0.781201
vt 0.343799 0.781201
vt 0.343799 0.703174
vt 0.421826 0.703174
vt 0.421826 0.781201
vt 0.343799 0.781201
vt 0.343799 0.703174
vt 0.421826 0.703174
vt 0.421826 0.781201
vt 0.343799 0.781201
vt 0.343799 0.703174
vt 0.421826 0.703174
vt 0.421826 0.781201
vt 0.343799 0.781201
vt 0.343799 0.703174
vt 0.421826 0.703174
vt 0.421826 0.781201
vt 0.343799 0.781201
vt 0.343799 0.703174
vt 0.421826 0.703174
vt 0.421826 0.781201
vt 0.343799 0.781201
vt 0.343799 0.703174
vt 0.421826 0.703174
vt 0.421826 0.781201
vt 0.343799 0.781201
vt 0.343799 0.703174
vt 0.421826 0.703174
vt 0.421826 0.781201
vt 0.343799 0.781201
vt 0.343799 0.703174
vt 0.421826 0.703174
vt 0.421826 0.781201
vt 0.343799 0.781201
vt 0.343799 0.703174
vt 0.421826 0.703174
vt 0.421826 0.781201
vt 0.343799 0.781201
vt 0.343799 0.703174
vn 0.0000 1.0000 0.0000
vn -0.8660 0.0000 -0.5000
vn -0.5000 0.0000 -0.8660
vn 1.0000 0.0000 0.0000
vn 0.8660 0.0000 0.5000
vn 0.0000 0.0000 1.0000
vn -0.5000 0.0000 0.8660
vn -1.0000 0.0000 0.0000
vn 0.8660 0.0000 -0.5000
vn 0.5000 0.0000 0.8660
vn -0.8660 0.0000 0.5000
vn 0.5000 0.0000 -0.8660
vn 0.0000 0.0000 -1.0000
vn -0.3474 0.7192 -0.6016
vn 0.0000 0.7192 -0.6947
vn -0.6016 0.7192 -0.3474
vn -0.6947 0.7192 0.0000
vn -0.6016 0.7192 0.3474
vn -0.3474 0.7192 0.6016
vn 0.0000 0.7192 0.6947
vn 0.3474 0.7192 0.6016
vn 0.6016 0.7192 0.3474
vn 0.6947 0.7192 0.0000
vn 0.6016 0.7192 -0.3474
vn 0.3474 0.7192 -0.6016
vn 0.0000 0.9205 0.3906
vn -0.2762 0.9205 0.2762
vn -0.1746 0.9690 0.1746
vn 0.0000 0.9690 0.2470
vn -0.3906 0.9205 0.0000
vn -0.2762 0.9205 -0.2762
vn -0.1746 0.9690 -0.1746
vn -0.2470 0.9690 0.0000
vn 0.0000 0.9205 -0.3906
vn 0.2762 0.9205 -0.2762
vn 0.1746 0.9690 -0.1746
vn 0.0000 0.9690 -0.2470
vn 0.3906 0.9205 0.0000
vn 0.2762 0.9205 0.2762
vn 0.1746 0.9690 0.1746
vn 0.2470 0.9690 0.0000
vn 0.6942 0.7198 0.0000
vn 0.4909 0.7198 0.4909
vn 0.0000 0.7198 0.6942
vn -0.4909 0.7198 0.4909
vn -0.6942 0.7198 0.0000
vn -0.4909 0.7198 -0.4909
vn 0.4909 0.7198 -0.4909
vn 0.0000 0.7198 -0.6942
usemtl spritesheet_col
s 1
f 60/1/1 18/2/1 17/3/1 58/4/1
f 51/5/1 13/6/1 24/7/1 72/8/1
f 68/9/1 22/10/1 21/11/1 66/12/1
f 62/13/1 19/14/1 18/15/1 60/16/1
f 54/17/1 15/18/1 14/19/1 52/20/1
f 56/21/1 16/22/1 15/23/1 54/24/1
f 70/25/1 23/26/1 22/27/1 68/28/1
f 64/29/1 20/30/1 19/31/1 62/32/1
f 58/33/1 17/34/1 16/35/1 56/36/1
f 72/37/1 24/38/1 23/39/1 70/40/1
f 66/41/1 21/42/1 20/43/1 64/44/1
f 142/45/2 55/46/2 53/47/3 141/48/3
f 149/49/4 69/50/4 67/51/5 148/52/5
f 146/53/6 63/54/6 61/55/7 145/56/7
f 143/57/8 57/58/8 55/59/2 142/60/2
f 150/61/9 71/62/9 69/63/4 149/64/4
f 147/65/10 65/66/10 63/67/6 146/68/6
f 144/69/11 59/70/11 57/71/8 143/72/8
f 140/73/12 73/74/12 71/75/9 150/76/9
f 141/77/3 53/78/3 152/79/13 139/80/13
f 148/81/5 67/82/5 65/83/10 147/84/10
f 145/85/7 61/86/7 59/87/11 144/88/11
f 139/89/13 152/90/13 73/91/12 140/92/12
f 13/93/1 25/94/1 36/95/1 24/96/1
f 15/97/1 27/98/1 26/99/1 14/100/1
f 22/101/1 34/102/1 33/103/1 21/104/1
f 19/105/1 31/106/1 30/107/1 18/108/1
f 16/109/1 28/110/1 27/111/1 15/112/1
f 23/113/1 35/114/1 34/115/1 22/116/1
f 20/117/1 32/118/1 31/119/1 19/120/1
f 17/121/1 29/122/1 28/123/1 16/124/1
f 24/125/1 36/126/1 35/127/1 23/128/1
f 14/129/1 26/130/1 25/131/1 13/132/1
f 21/133/1 33/134/1 32/135/1 20/136/1
f 18/137/1 30/138/1 29/139/1 17/140/1
f 30/141/1 42/142/1 41/143/1 29/144/1
f 25/145/1 37/146/1 48/147/1 36/148/1
f 27/149/1 39/150/1 38/151/1 26/152/1
f 34/153/1 46/154/1 45/155/1 33/156/1
f 31/157/1 43/158/1 42/159/1 30/160/1
f 28/161/1 40/162/1 39/163/1 27/164/1
f 35/165/1 47/166/1 46/167/1 34/168/1
f 32/169/1 44/170/1 43/171/1 31/172/1
f 29/173/1 41/174/1 40/175/1 28/176/1
f 36/177/1 48/178/1 47/179/1 35/180/1
f 26/181/1 38/182/1 37/183/1 25/184/1
f 33/185/1 45/186/1 44/187/1 32/188/1
f 42/189/1 49/190/1 41/191/1
f 37/192/1 49/193/1 48/194/1
f 39/195/1 49/190/1 38/196/1
f 46/197/1 49/193/1 45/198/1
f 43/199/1 49/193/1 42/200/1
f 40/201/1 49/193/1 39/202/1
f 47/203/1 49/204/1 46/205/1
f 44/206/1 49/204/1 43/207/1
f 41/208/1 49/204/1 40/209/1
f 48/210/1 49/190/1 47/211/1
f 38/212/1 49/204/1 37/213/1
f 45/214/1 49/190/1 44/215/1
f 151/216/14 154/217/14 153/218/15 50/219/15
f 155/220/16 156/221/16 154/222/14 151/223/14
f 157/224/17 158/225/17 156/226/16 155/227/16
f 159/228/18 160/229/18 158/230/17 157/231/17
f 161/232/19 162/233/19 160/234/18 159/235/18
f 163/236/20 164/237/20 162/238/19 161/239/19
f 165/240/21 166/241/21 164/242/20 163/243/20
f 167/244/22 168/245/22 166/246/21 165/247/21
f 169/248/23 170/249/23 168/250/22 167/251/22
f 171/252/24 172/253/24 170/254/23 169/255/23
f 173/256/25 174/257/25 172/258/24 171/259/24
f 50/260/15 153/261/15 174/262/25 173/263/25
f 52/264/1 14/265/1 13/266/1 51/267/1
f 74/268/26 81/269/27 89/270/28 82/271/29
f 80/272/30 79/273/31 87/274/32 88/275/33
f 78/276/34 77/277/35 85/278/36 86/279/37
f 76/280/38 75/281/39 83/282/40 84/283/41
f 81/284/27 80/285/30 88/286/33 89/287/28
f 79/288/31 78/289/34 86/290/37 87/291/32
f 77/292/35 76/293/38 84/294/41 85/295/36
f 75/296/39 74/297/26 82/298/29 83/299/40
f 89/300/28 88/301/33 181/302/1 182/303/1
f 87/304/32 86/305/37 179/306/1 180/307/1
f 85/308/36 84/309/41 177/310/1 178/311/1
f 83/312/40 82/313/29 176/314/1 175/315/1
f 82/316/29 89/317/28 182/318/1 176/319/1
f 88/320/33 87/321/32 180/322/1 181/323/1
f 86/324/37 85/325/36 178/326/1 179/327/1
f 84/328/41 83/329/40 175/330/1 177/331/1
f 96/332/42 95/333/43 103/334/43 104/335/42
f 94/336/44 93/337/45 101/338/45 102/339/44
f 92/340/46 91/341/47 99/342/47 100/343/46
f 97/344/48 96/345/42 104/346/42 105/347/48
f 95/348/43 94/349/44 102/350/44 103/351/43
f 93/352/45 92/353/46 100/354/46 101/355/45
f 91/356/47 90/357/49 98/358/49 99/359/47
f 90/360/49 97/361/48 105/362/48 98/363/49
f 81/284/27 74/297/26 106/364/1 113/365/1
f 79/288/31 80/285/30 112/366/1 111/367/1
f 77/292/35 78/289/34 110/368/1 109/369/1
f 75/296/39 76/293/38 108/370/1 107/371/1
f 80/272/30 81/269/27 113/372/1 112/373/1
f 78/276/34 79/273/31 111/374/1 110/375/1
f 76/280/38 77/277/35 109/376/1 108/377/1
f 74/268/26 75/281/39 107/378/1 106/379/1
f 112/380/1 113/381/1 114/382/1
f 110/383/1 111/384/1 114/382/1
f 108/385/1 109/386/1 114/382/1
f 106/387/1 107/388/1 114/382/1
f 113/389/1 106/390/1 114/391/1
f 111/392/1 112/393/1 114/391/1
f 109/394/1 110/395/1 114/391/1
f 107/396/1 108/397/1 114/391/1
f 1/398/13 117/399/13 119/400/12 12/401/12
f 117/402/13 118/403/13 120/404/12 119/405/12
f 6/406/7 128/407/7 126/408/11 5/409/11
f 128/410/7 127/411/7 125/412/11 126/413/11
f 9/414/5 134/415/5 132/416/10 8/417/10
f 134/418/5 133/419/5 131/420/10 132/421/10
f 2/422/3 116/423/3 117/424/13 1/425/13
f 116/426/3 115/427/3 118/428/13 117/429/13
f 12/430/12 119/431/12 138/432/9 11/433/9
f 119/434/12 120/435/12 137/436/9 138/437/9
f 5/438/11 126/439/11 124/440/8 4/441/8
f 126/442/11 125/443/11 123/444/8 124/445/8
f 8/446/10 132/447/10 130/448/6 7/449/6
f 132/450/10 131/451/10 129/452/6 130/453/6
f 11/454/9 138/455/9 136/456/4 10/457/4
f 138/458/9 137/459/9 135/460/4 136/461/4
f 4/462/8 124/463/8 122/464/2 3/465/2
f 124/466/8 123/467/8 121/468/2 122/469/2
f 7/470/6 130/471/6 128/472/7 6/473/7
f 130/474/6 129/475/6 127/476/7 128/477/7
f 10/478/4 136/479/4 134/480/5 9/481/5
f 136/482/4 135/483/4 133/484/5 134/485/5
f 3/486/2 122/487/2 116/488/3 2/489/3
f 122/490/2 121/491/2 115/492/3 116/493/3
f 118/494/13 139/495/13 140/496/12 120/497/12
f 127/498/7 145/499/7 144/500/11 125/501/11
f 133/502/5 148/503/5 147/504/10 131/505/10
f 115/506/3 141/507/3 139/508/13 118/509/13
f 120/510/12 140/511/12 150/512/9 137/513/9
f 125/514/11 144/515/11 143/516/8 123/517/8
f 131/518/10 147/519/10 146/520/6 129/521/6
f 137/522/9 150/523/9 149/524/4 135/525/4
f 123/526/8 143/527/8 142/528/2 121/529/2
f 129/530/6 146/531/6 145/532/7 127/533/7
f 135/534/4 149/535/4 148/536/5 133/537/5
f 121/538/2 142/539/2 141/540/3 115/541/3
