# Blender v2.91.0 OBJ File: 'ConveyorBelts.blend'
# www.blender.org
mtllib ConveyorBelt_straight.mtl
o conveyor_straight_Cube.003
v -1.000000 0.226669 2.000000
v -0.682344 0.000000 2.000000
v -0.701745 0.226669 2.000000
v -0.682344 0.091692 2.000000
v -0.841172 0.243178 2.000000
v -1.034885 0.000000 2.000000
v 1.000000 0.226669 2.000000
v 0.701745 0.226669 2.000000
v 0.682345 0.091692 2.000000
v 0.841172 0.243178 2.000000
v 0.000000 0.091692 2.000000
v 0.000000 0.000000 2.000000
v 0.682345 0.000000 2.000000
v -1.000000 0.226669 1.000000
v -0.682344 0.000000 1.000000
v -0.701745 0.226669 1.000000
v -0.682344 0.091692 1.000000
v -0.841172 0.243178 1.000000
v -1.034885 0.000000 1.000000
v 1.000000 0.226669 1.000000
v 0.701745 0.226669 1.000000
v 0.682345 0.091692 1.000000
v 0.841172 0.243178 1.000000
v 0.000000 0.091692 1.000000
v 0.000000 0.000000 1.000000
v 0.682345 0.000000 1.000000
v -1.000000 0.226669 0.000000
v -0.682344 0.000000 0.000000
v -0.701745 0.226669 0.000000
v -0.682344 0.091692 0.000000
v -0.841172 0.243178 0.000000
v -1.034885 0.000000 0.000000
v 1.000000 0.226669 0.000000
v 0.701745 0.226669 0.000000
v 0.682345 0.091692 0.000000
v 0.841172 0.243178 0.000000
v 0.000000 0.091692 0.000000
v 0.000000 0.000000 0.000000
v 0.682345 0.000000 0.000000
v 1.034885 0.000000 2.000001
v 1.034885 0.000000 1.000001
v 1.034885 0.000000 0.000001
vt 0.281250 0.906250
vt 0.328125 0.906250
vt 0.328125 0.953125
vt 0.281250 0.953125
vt 0.375000 0.906250
vt 0.375000 0.953125
vt 0.328125 1.000000
vt 0.281250 1.000000
vt 0.375000 1.000000
vt 0.625000 0.708333
vt 0.625000 0.666667
vt 0.625000 0.666667
vt 0.625000 0.708333
vt 0.625000 0.666667
vt 0.625000 0.666667
vt 0.625000 0.666667
vt 0.625000 0.666667
vt 0.625000 0.708333
vt 0.625000 0.750000
vt 0.625000 0.750000
vt 0.625000 0.708333
vt 0.375000 0.750000
vt 0.375000 0.750000
vt 0.375000 0.750000
vt 0.375000 0.750000
vt 0.375000 0.750000
vt 0.500000 0.750000
vt 0.500000 0.750000
vt 0.375000 0.750000
vt 0.625000 0.666667
vt 0.625000 0.666667
vt 0.625000 0.750000
vt 0.625000 0.750000
vt 0.625000 0.750000
vt 0.500000 0.750000
vt 0.625000 0.666667
vt 0.625000 0.708333
vt 0.625000 0.666667
vt 0.625000 0.666667
vt 0.625000 0.750000
vt 0.625000 0.708333
vt 0.375000 0.750000
vt 0.375000 0.750000
vt 0.625000 0.666667
vt 0.375000 0.750000
vt 0.625000 0.750000
vt 0.625000 0.750000
vt 0.625000 0.750000
vn 0.0000 1.0000 0.0000
vn 0.1176 0.9931 0.0000
vn -0.9898 0.1423 0.0000
vn 0.1034 0.9946 0.0000
vn 0.0000 -1.0000 0.0000
vn -0.1176 0.9931 0.0000
vn 0.9898 0.1423 0.0000
vn -0.1034 0.9946 0.0000
vn -0.9884 0.1521 0.0000
vn 0.9884 0.1521 0.0000
usemtl Belt
s off
f 4/1/1 11/2/1 24/3/1 17/4/1
f 11/2/1 9/5/1 22/6/1 24/3/1
f 17/4/1 24/3/1 37/7/1 30/8/1
f 24/3/1 22/6/1 35/9/1 37/7/1
usemtl Sides
f 5/10/2 3/11/2 16/12/2 18/13/2
f 9/14/3 8/15/3 21/16/3 22/17/3
f 10/18/4 7/19/4 20/20/4 23/21/4
f 13/22/5 12/23/5 25/24/5 26/25/5
f 2/26/5 6/27/5 19/28/5 15/29/5
f 8/15/6 10/18/6 23/21/6 21/16/6
f 3/11/7 4/30/7 17/31/7 16/12/7
f 12/23/5 2/26/5 15/29/5 25/24/5
f 1/32/8 5/10/8 18/13/8 14/33/8
f 6/27/9 1/32/9 14/33/9 19/28/9
f 19/28/9 14/33/9 27/34/9 32/35/9
f 18/13/2 16/12/2 29/36/2 31/37/2
f 22/17/3 21/16/3 34/38/3 35/39/3
f 23/21/4 20/20/4 33/40/4 36/41/4
f 25/24/5 15/29/5 28/42/5 38/43/5
f 15/29/5 19/28/5 32/35/5 28/42/5
f 21/16/6 23/21/6 36/41/6 34/38/6
f 16/12/7 17/31/7 30/44/7 29/36/7
f 26/25/5 25/24/5 38/43/5 39/45/5
f 14/33/8 18/13/8 31/37/8 27/34/8
f 33/40/10 20/20/10 41/46/10 42/47/10
f 20/20/10 7/19/10 40/48/10 41/46/10
f 26/25/5 39/45/5 42/47/5 41/46/5 40/48/5 13/22/5
