# Blender v2.91.0 OBJ File: 'couch.blend'
# www.blender.org
mtllib couch_wide.mtl
o Couch_Cube
v 1.000000 -0.250000 0.000000
v -1.000000 0.250000 0.000000
v 0.500000 -0.258531 0.000000
v 1.000000 0.250000 0.000000
v 1.000000 -0.250000 0.500000
v -0.500000 -0.250000 0.500000
v 0.500000 0.250000 -0.500000
v 1.000000 0.250000 -0.500000
v -1.000000 -0.250000 0.500000
v 0.000000 -0.258531 0.000000
v -0.500000 -0.258531 0.000000
v 0.500000 -0.250000 -0.500000
v 0.000000 -0.250000 0.500000
v 0.500000 -0.250000 0.500000
v -0.500000 0.258530 0.000000
v 0.000000 0.250000 0.500000
v -1.000000 0.250000 0.500000
v -1.000000 -0.250000 -0.500000
v 0.000000 -0.250000 -0.500000
v 1.000000 -0.250000 -0.500000
v 1.000000 0.250000 0.500000
v 0.500000 0.258530 0.000000
v -0.500000 -0.250000 -0.500000
v -1.000000 -0.250000 0.000000
v 0.000000 0.250000 -0.500000
v -0.500000 0.250000 -0.500000
v -1.000000 0.250000 -0.500000
v -0.500000 0.250000 0.500000
v 0.500000 0.250000 0.500000
v 0.000000 0.258530 0.000000
v -0.937500 -0.250000 0.500000
v -0.937500 0.264620 0.000000
v -0.937500 -0.250000 -0.500000
v -0.937500 0.250000 -0.500000
v -0.937500 -0.264620 0.000000
v -0.937500 0.250000 0.500000
v 0.937500 0.250000 -0.500000
v 0.937500 -0.264620 0.000000
v 0.937500 -0.250000 0.500000
v 0.937500 -0.250000 -0.500000
v 0.937500 0.250000 0.500000
v 0.937500 0.264620 0.000000
v 1.000000 0.250000 -0.437500
v 0.000000 0.264620 -0.437500
v 0.500000 -0.264620 -0.437500
v -1.000000 -0.250000 -0.437500
v -0.500000 0.264620 -0.437500
v 0.500000 0.264620 -0.437500
v 1.000000 -0.250000 -0.437500
v 0.000000 -0.264620 -0.437500
v -0.500000 -0.264620 -0.437500
v -1.000000 0.250000 -0.437500
v -0.937500 0.264620 -0.437500
v -0.937500 -0.264620 -0.437500
v 0.937500 0.264620 -0.437500
v 0.937500 -0.264620 -0.437500
v -0.500000 0.264620 0.437500
v 0.500000 -0.264620 0.437500
v -1.000000 -0.250000 0.437500
v 1.000000 -0.250000 0.437500
v 0.000000 0.264620 0.437500
v -0.500000 -0.264620 0.437500
v 0.000000 -0.264620 0.437500
v -1.000000 0.250000 0.437500
v 1.000000 0.250000 0.437500
v 0.500000 0.264620 0.437500
v -0.937500 0.264620 0.437500
v -0.937500 -0.264620 0.437500
v 0.937500 0.264620 0.437500
v 0.937500 -0.264620 0.437500
v -0.500000 -0.187500 -0.529473
v -0.500000 0.187500 -0.529473
v 0.000000 0.187500 0.529473
v 0.000000 -0.187500 0.529473
v 0.500000 -0.187500 0.529473
v 0.500000 0.187500 0.529473
v 1.000000 -0.187500 0.500000
v 1.000000 0.187500 0.500000
v 0.500000 -0.187500 -0.529473
v 0.500000 0.187500 -0.529473
v -1.024382 0.187500 0.000000
v -1.024382 -0.187500 0.000000
v -1.000000 0.187500 0.500000
v -1.000000 -0.187500 0.500000
v 1.000000 -0.187500 -0.500000
v 1.000000 0.187500 -0.500000
v 0.000000 -0.187500 -0.529473
v 0.000000 0.187500 -0.529473
v -1.000000 -0.187500 -0.500000
v -1.000000 0.187500 -0.500000
v -0.500000 0.187500 0.529473
v -0.500000 -0.187500 0.529473
v 1.024382 0.187500 0.000000
v 1.024382 -0.187500 0.000000
v -0.937500 -0.187500 -0.529473
v -0.937500 0.187500 -0.529473
v -0.937500 -0.187500 0.529473
v -0.937500 0.187500 0.529473
v 0.937500 -0.187500 -0.529473
v 0.937500 0.187500 -0.529473
v 0.937500 -0.187500 0.529473
v 0.937500 0.187500 0.529473
v -1.024382 -0.187500 -0.437500
v -1.024382 0.187500 -0.437500
v 1.024382 -0.187500 -0.437500
v 1.024382 0.187500 -0.437500
v -1.024382 -0.187500 0.437500
v -1.024382 0.187500 0.437500
v 1.024382 -0.187500 0.437500
v 1.024382 0.187500 0.437500
vt 0.310510 0.810553
vt 0.312500 0.810510
vt 0.312451 0.812451
vt 0.310510 0.812500
vt 0.265625 0.810510
vt 0.281250 0.810510
vt 0.281201 0.812451
vt 0.265674 0.812451
vt 0.251990 0.810553
vt 0.265576 0.812451
vt 0.251990 0.812500
vt 0.296875 0.810510
vt 0.296826 0.812451
vt 0.281299 0.812451
vt 0.251990 0.814496
vt 0.251990 0.828125
vt 0.265576 0.828076
vt 0.265625 0.814490
vt 0.265674 0.828076
vt 0.281201 0.828076
vt 0.281250 0.814490
vt 0.281299 0.828076
vt 0.296826 0.828076
vt 0.296875 0.814490
vt 0.310510 0.814496
vt 0.310510 0.828125
vt 0.312451 0.828076
vt 0.312451 0.814490
vt 0.251990 0.841754
vt 0.251990 0.843701
vt 0.265576 0.843701
vt 0.265625 0.841760
vt 0.265674 0.843701
vt 0.281201 0.843701
vt 0.281250 0.841760
vt 0.281299 0.843701
vt 0.296826 0.843701
vt 0.296875 0.841760
vt 0.310510 0.841754
vt 0.310510 0.843701
vt 0.312451 0.843701
vt 0.312451 0.841760
vt 0.314490 0.810510
vt 0.328125 0.810510
vt 0.328076 0.812451
vt 0.314490 0.812451
vt 0.341760 0.810510
vt 0.343701 0.810510
vt 0.343701 0.812451
vt 0.341760 0.812451
vt 0.251990 0.810510
vt 0.265625 0.810510
vt 0.265576 0.812451
vt 0.251990 0.812451
vt 0.281250 0.810510
vt 0.281201 0.812451
vt 0.265674 0.812451
vt 0.296875 0.810510
vt 0.296826 0.812451
vt 0.281299 0.812451
vt 0.310510 0.810510
vt 0.312500 0.810510
vt 0.312451 0.812451
vt 0.310510 0.812451
vt 0.314490 0.810510
vt 0.328125 0.810510
vt 0.328076 0.812451
vt 0.314490 0.812451
vt 0.341760 0.810510
vt 0.343701 0.810510
vt 0.343701 0.812451
vt 0.341760 0.812451
vt 0.251990 0.814453
vt 0.265625 0.814490
vt 0.265576 0.828076
vt 0.251990 0.828125
vt 0.281250 0.814490
vt 0.281201 0.828076
vt 0.265674 0.828076
vt 0.296875 0.814490
vt 0.296826 0.828076
vt 0.281299 0.828076
vt 0.310510 0.814453
vt 0.312451 0.814490
vt 0.312451 0.828076
vt 0.310510 0.828125
vt 0.251990 0.841754
vt 0.265625 0.841760
vt 0.265576 0.843701
vt 0.251990 0.843701
vt 0.281250 0.841760
vt 0.281201 0.843701
vt 0.265674 0.843701
vt 0.296875 0.841760
vt 0.296826 0.843701
vt 0.281299 0.843701
vt 0.310510 0.841754
vt 0.312451 0.841760
vt 0.312451 0.843701
vt 0.310510 0.843701
vt 0.250049 0.841760
vt 0.250049 0.843701
vt 0.250049 0.814490
vt 0.250049 0.828076
vt 0.296924 0.812451
vt 0.250049 0.841760
vt 0.250049 0.843701
vt 0.250049 0.814490
vt 0.250049 0.828076
vt 0.250049 0.810510
vt 0.250049 0.812451
vt 0.296924 0.843701
vt 0.296924 0.828076
vt 0.250049 0.810510
vt 0.250049 0.812451
vt 0.296924 0.843701
vt 0.296924 0.828076
vt 0.296924 0.812451
vt 0.296924 0.828174
vt 0.296924 0.828174
vt 0.250049 0.828174
vt 0.250049 0.828174
vt 0.312451 0.828174
vt 0.281299 0.828174
vt 0.296826 0.828174
vt 0.265674 0.828174
vt 0.281201 0.828174
vt 0.265576 0.828174
vt 0.328174 0.812451
vt 0.312451 0.828174
vt 0.281299 0.828174
vt 0.296826 0.828174
vt 0.265674 0.828174
vt 0.281201 0.828174
vt 0.265576 0.828174
vt 0.296924 0.812549
vt 0.310510 0.812549
vt 0.250049 0.812549
vt 0.251990 0.812549
vt 0.328174 0.812451
vt 0.312451 0.812549
vt 0.281299 0.812549
vt 0.296826 0.812549
vt 0.265674 0.812549
vt 0.281201 0.812549
vt 0.265576 0.812549
vt 0.312549 0.796924
vt 0.314490 0.796924
vt 0.314490 0.798865
vt 0.312500 0.798865
vt 0.328125 0.798865
vt 0.341760 0.798865
vt 0.328174 0.796924
vt 0.341760 0.796924
vt 0.328125 0.798865
vt 0.341760 0.798865
vt 0.328174 0.796924
vt 0.341760 0.796924
vt 0.312500 0.798865
vt 0.314490 0.798865
vt 0.312549 0.796924
vt 0.314490 0.796924
vt 0.296875 0.798865
vt 0.310510 0.798871
vt 0.296924 0.796924
vt 0.310510 0.796924
vt 0.250049 0.798865
vt 0.251990 0.798865
vt 0.250049 0.796924
vt 0.251990 0.796924
vt 0.250049 0.798865
vt 0.251990 0.798871
vt 0.250049 0.796924
vt 0.251990 0.796924
vt 0.296875 0.798865
vt 0.310510 0.798865
vt 0.296924 0.796924
vt 0.310510 0.796924
vt 0.343701 0.798865
vt 0.343701 0.796924
vt 0.328076 0.796924
vt 0.281250 0.798865
vt 0.281299 0.796924
vt 0.296826 0.796924
vt 0.265625 0.798865
vt 0.265674 0.796924
vt 0.281201 0.796924
vt 0.265576 0.796924
vt 0.343701 0.798865
vt 0.343701 0.796924
vt 0.328076 0.796924
vt 0.281250 0.798865
vt 0.281299 0.796924
vt 0.296826 0.796924
vt 0.265625 0.798865
vt 0.265576 0.796924
vt 0.265674 0.796924
vt 0.281201 0.796924
vn 0.1663 0.1663 0.9719
vn 0.7220 0.1167 0.6819
vn 0.5703 0.6120 0.5480
vn 0.0989 0.7614 0.6406
vn 0.0000 0.2185 0.9758
vn 0.0000 0.7776 0.6287
vn -0.1663 0.1663 0.9719
vn -0.0989 0.7614 0.6406
vn -0.0846 -0.9928 0.0846
vn -0.1112 -0.9938 0.0000
vn 0.0035 -1.0000 0.0000
vn 0.0017 -0.9940 0.1094
vn 0.0000 -1.0000 0.0000
vn 0.0000 -0.9942 0.1077
vn -0.0035 -1.0000 0.0000
vn -0.0017 -0.9940 0.1094
vn 0.0846 -0.9928 0.0846
vn 0.1112 -0.9938 0.0000
vn 0.6551 -0.7555 0.0000
vn 0.6627 -0.7435 0.0898
vn -0.0846 -0.9928 -0.0846
vn -0.0989 -0.7614 -0.6406
vn 0.0000 -0.7776 -0.6287
vn 0.0017 -0.9940 -0.1094
vn 0.0000 -0.9942 -0.1077
vn -0.0017 -0.9940 -0.1094
vn 0.0846 -0.9928 -0.0846
vn 0.0989 -0.7614 -0.6406
vn 0.5703 -0.6120 -0.5480
vn 0.6627 -0.7435 -0.0898
vn 0.9801 0.1401 0.1401
vn 0.9827 0.1849 0.0000
vn 0.6551 0.7555 0.0000
vn 0.6627 0.7435 0.0898
vn 0.9801 0.1401 -0.1401
vn 0.7220 0.1167 -0.6819
vn 0.5703 0.6120 -0.5480
vn 0.6627 0.7435 -0.0898
vn 0.1663 0.1663 -0.9719
vn 0.0000 0.2185 -0.9758
vn 0.0000 0.7776 -0.6287
vn 0.0989 0.7614 -0.6406
vn -0.1663 0.1663 -0.9719
vn -0.7220 0.1167 -0.6819
vn -0.5703 0.6120 -0.5480
vn -0.0989 0.7614 -0.6406
vn -0.9801 0.1401 -0.1401
vn -0.9827 0.1849 0.0000
vn -0.6551 0.7555 0.0000
vn -0.6627 0.7435 -0.0898
vn -0.9801 0.1401 0.1401
vn -0.7220 0.1167 0.6819
vn -0.5703 0.6120 0.5480
vn -0.6627 0.7435 0.0898
vn -0.0846 0.9928 0.0846
vn 0.0017 0.9940 0.1094
vn 0.0035 1.0000 0.0000
vn -0.1112 0.9938 0.0000
vn 0.0000 0.9942 0.1077
vn 0.0000 1.0000 0.0000
vn -0.0017 0.9940 0.1094
vn -0.0035 1.0000 0.0000
vn 0.0846 0.9928 0.0846
vn 0.1112 0.9938 0.0000
vn -0.0846 0.9928 -0.0846
vn 0.0017 0.9940 -0.1094
vn 0.0000 0.9942 -0.1077
vn -0.0017 0.9940 -0.1094
vn 0.0846 0.9928 -0.0846
vn -0.6627 -0.7435 -0.0898
vn -0.5703 -0.6120 -0.5480
vn -0.6627 -0.7435 0.0898
vn -0.6551 -0.7555 0.0000
vn 0.0000 -0.7776 0.6287
vn 0.0989 -0.7614 0.6406
vn -0.5703 -0.6120 0.5480
vn -0.0989 -0.7614 0.6406
vn 0.5703 -0.6120 0.5480
vn 0.9801 -0.1401 0.1401
vn 0.7220 -0.1167 0.6819
vn -0.9827 -0.1849 0.0000
vn -0.9801 -0.1401 0.1401
vn 0.9827 -0.1849 0.0000
vn 0.9801 -0.1401 -0.1401
vn -0.7220 -0.1167 -0.6819
vn -0.9801 -0.1401 -0.1401
vn 0.0000 -0.2185 0.9758
vn 0.1663 -0.1663 0.9719
vn 0.7220 -0.1167 -0.6819
vn 0.1663 -0.1663 -0.9719
vn -0.7220 -0.1167 0.6819
vn -0.1663 -0.1663 0.9719
vn 0.0000 -0.2185 -0.9758
vn -0.1663 -0.1663 -0.9719
usemtl spritesheet_col
s 1
f 102/1/1 78/2/2 21/3/3 41/4/4
f 91/5/5 73/6/5 16/7/6 28/8/6
f 98/9/7 91/5/5 28/10/6 36/11/8
f 73/6/5 76/12/5 29/13/6 16/14/6
f 68/15/9 35/16/10 11/17/11 62/18/12
f 62/18/12 11/19/11 10/20/13 63/21/14
f 63/21/14 10/22/13 3/23/15 58/24/16
f 70/25/17 38/26/18 1/27/19 60/28/20
f 54/29/21 33/30/22 23/31/23 51/32/24
f 51/32/24 23/33/23 19/34/23 50/35/25
f 50/35/25 19/36/23 12/37/23 45/38/26
f 56/39/27 40/40/28 20/41/29 49/42/30
f 110/43/31 93/44/32 4/45/33 65/46/34
f 106/47/35 86/48/36 8/49/37 43/50/38
f 100/51/39 80/52/40 7/53/41 37/54/42
f 80/52/40 88/55/40 25/56/41 7/57/41
f 88/55/40 72/58/40 26/59/41 25/60/41
f 96/61/43 90/62/44 27/63/45 34/64/46
f 104/65/47 81/66/48 2/67/49 52/68/50
f 108/69/51 83/70/52 17/71/53 64/72/54
f 67/73/55 57/74/56 15/75/57 32/76/58
f 57/74/56 61/77/59 30/78/60 15/79/57
f 61/77/59 66/80/61 22/81/62 30/82/60
f 69/83/63 65/84/34 4/85/33 42/86/64
f 53/87/65 47/88/66 26/89/41 34/90/46
f 47/88/66 44/91/67 25/92/41 26/93/41
f 44/91/67 48/94/68 7/95/41 25/96/41
f 55/97/69 43/98/38 8/99/37 37/100/42
f 52/101/50 53/87/65 34/90/46 27/102/45
f 64/103/54 67/73/55 32/76/58 2/104/49
f 72/58/40 96/61/43 34/64/46 26/105/41
f 46/106/70 18/107/71 33/30/22 54/29/21
f 59/108/72 24/109/73 35/16/10 68/15/9
f 83/110/52 98/9/7 36/11/8 17/111/53
f 48/94/68 55/97/69 37/100/42 7/112/41
f 66/80/61 69/83/63 42/86/64 22/113/62
f 86/114/36 100/51/39 37/54/42 8/115/37
f 45/38/26 12/116/23 40/40/28 56/39/27
f 58/24/16 3/117/15 38/26/18 70/25/17
f 76/12/5 102/1/1 41/4/4 29/118/6
f 3/119/15 45/38/26 56/39/27 38/26/18
f 22/120/62 42/86/64 55/97/69 48/94/68
f 24/121/73 46/106/70 54/29/21 35/16/10
f 2/122/49 32/76/58 53/87/65 52/101/50
f 42/86/64 4/123/33 43/98/38 55/97/69
f 30/124/60 22/125/62 48/94/68 44/91/67
f 15/126/57 30/127/60 44/91/67 47/88/66
f 32/76/58 15/128/57 47/88/66 53/87/65
f 90/62/44 104/65/47 52/68/50 27/63/45
f 93/44/32 106/47/35 43/50/38 4/129/33
f 38/26/18 56/39/27 49/42/30 1/130/19
f 10/131/13 50/35/25 45/38/26 3/132/15
f 11/133/11 51/32/24 50/35/25 10/134/13
f 35/16/10 54/29/21 51/32/24 11/135/11
f 14/136/74 58/24/16 70/25/17 39/137/75
f 29/118/6 41/4/4 69/83/63 66/80/61
f 9/138/76 59/108/72 68/15/9 31/139/77
f 17/111/53 36/11/8 67/73/55 64/103/54
f 41/4/4 21/3/3 65/84/34 69/83/63
f 16/14/6 29/13/6 66/80/61 61/77/59
f 28/8/6 16/7/6 61/77/59 57/74/56
f 36/11/8 28/10/6 57/74/56 67/73/55
f 81/66/48 108/69/51 64/72/54 2/140/49
f 78/2/2 110/43/31 65/46/34 21/3/3
f 39/137/75 70/25/17 60/28/20 5/141/78
f 13/142/74 63/21/14 58/24/16 14/143/74
f 6/144/74 62/18/12 63/21/14 13/145/74
f 31/139/77 68/15/9 62/18/12 6/146/74
f 5/147/78 60/148/20 109/149/79 77/150/80
f 82/151/81 107/152/82 108/69/51 81/66/48
f 24/153/73 59/154/72 107/152/82 82/151/81
f 94/155/83 105/156/84 106/47/35 93/44/32
f 1/157/19 49/158/30 105/156/84 94/155/83
f 89/159/85 103/160/86 104/65/47 90/62/44
f 18/161/71 46/162/70 103/160/86 89/159/85
f 75/163/87 101/164/88 102/1/1 76/12/5
f 14/165/74 39/166/75 101/164/88 75/163/87
f 85/167/89 99/168/90 100/51/39 86/114/36
f 20/169/29 40/170/28 99/168/90 85/167/89
f 84/171/91 97/172/92 98/9/7 83/110/52
f 9/173/76 31/174/77 97/172/92 84/171/91
f 71/175/93 95/176/94 96/61/43 72/58/40
f 23/177/23 33/178/22 95/176/94 71/175/93
f 107/152/82 84/179/91 83/70/52 108/69/51
f 59/154/72 9/180/76 84/179/91 107/152/82
f 103/160/86 82/151/81 81/66/48 104/65/47
f 46/162/70 24/181/73 82/151/81 103/160/86
f 95/176/94 89/159/85 90/62/44 96/61/43
f 33/178/22 18/161/71 89/159/85 95/176/94
f 87/182/93 71/175/93 72/58/40 88/55/40
f 19/183/23 23/184/23 71/175/93 87/182/93
f 79/185/93 87/182/93 88/55/40 80/52/40
f 12/186/23 19/187/23 87/182/93 79/185/93
f 99/168/90 79/185/93 80/52/40 100/51/39
f 40/170/28 12/188/23 79/185/93 99/168/90
f 105/156/84 85/189/89 86/48/36 106/47/35
f 49/158/30 20/190/29 85/189/89 105/156/84
f 109/149/79 94/155/83 93/44/32 110/43/31
f 60/148/20 1/191/19 94/155/83 109/149/79
f 74/192/87 75/163/87 76/12/5 73/6/5
f 13/193/74 14/194/74 75/163/87 74/192/87
f 97/172/92 92/195/87 91/5/5 98/9/7
f 31/174/77 6/196/74 92/195/87 97/172/92
f 92/195/87 74/192/87 73/6/5 91/5/5
f 6/197/74 13/198/74 74/192/87 92/195/87
f 101/164/88 77/150/80 78/2/2 102/1/1
f 39/166/75 5/147/78 77/150/80 101/164/88
f 77/150/80 109/149/79 110/43/31 78/2/2
