# Blender v2.91.0 OBJ File: 'television.blend'
# www.blender.org
mtllib television.mtl
o Cube
v 0.272336 0.594885 -0.273298
v 0.272336 0.633701 -0.234482
v 0.272336 0.087104 -0.234482
v 0.272336 0.125920 -0.273298
v 0.272336 0.633701 0.234482
v 0.272336 0.594885 0.273298
v 0.272336 0.125920 0.273298
v 0.272336 0.087104 0.234482
v -0.135446 0.719938 -0.271654
v -0.245262 0.634554 -0.377980
v -0.310041 0.090016 -0.359979
v -0.263832 0.000424 -0.270386
v -0.245262 0.634554 0.341978
v -0.135446 0.719938 0.269119
v -0.263832 0.000424 0.270386
v -0.310041 0.090016 0.359979
v 0.252238 0.087780 -0.366375
v 0.252238 -0.001812 -0.276782
v 0.252238 0.628553 0.353583
v 0.252238 0.718146 0.263991
v 0.252238 -0.001812 0.263991
v 0.252238 0.087780 0.353583
v 0.252238 0.718146 -0.276782
v 0.252238 0.628553 -0.366375
v 0.248076 0.125920 -0.273298
v 0.248076 0.087104 -0.234482
v 0.248076 0.594885 0.273298
v 0.248076 0.633701 0.234482
v 0.248076 0.087104 0.234482
v 0.248076 0.125920 0.273298
v 0.248076 0.633701 -0.234482
v 0.248076 0.594885 -0.273298
v 0.279322 0.108083 -0.312932
v 0.279322 0.043879 -0.248727
v 0.279322 0.612952 0.320346
v 0.279322 0.677156 0.256141
v 0.279322 0.043879 0.256141
v 0.279322 0.108083 0.320346
v 0.279322 0.677156 -0.248727
v 0.279322 0.612952 -0.312932
v 0.273147 0.256077 -0.060032
v 0.273147 0.309343 -0.109118
v 0.273147 0.463134 0.040274
v 0.273147 0.409506 0.097981
v 0.273147 0.305976 0.095951
v 0.273147 0.257403 0.041876
v 0.273147 0.408103 -0.108910
v 0.273147 0.462386 -0.060560
v 0.262141 0.555901 -0.111921
v 0.262141 0.469354 -0.195498
v 0.277797 0.307441 -0.033721
v 0.262141 0.250838 -0.195498
v 0.262141 0.164905 -0.111649
v 0.262141 0.164905 0.108640
v 0.262141 0.248967 0.195498
v 0.262141 0.471377 0.195498
v 0.262141 0.555901 0.109063
v -0.310041 0.360403 -0.359979
v 0.252238 0.358167 -0.366375
v 0.252238 0.358167 0.353583
v -0.310041 0.360403 0.359979
v 0.272336 0.360403 -0.273298
v 0.272336 0.360403 0.273298
v 0.248076 0.360403 -0.273298
v 0.248076 0.360403 0.273298
v 0.279322 0.360518 0.320346
v 0.279322 0.360518 -0.312932
v 0.273147 0.358723 -0.109014
v 0.262141 0.360096 -0.195498
v 0.273147 0.357741 0.096966
v 0.262141 0.360172 0.195498
v 0.252238 -0.001812 -0.006591
v 0.252238 0.718146 -0.006591
v -0.135446 0.719938 -0.006591
v -0.263832 0.000424 -0.006591
v 0.272336 0.087104 -0.006591
v 0.272336 0.633701 -0.006591
v 0.248076 0.087104 -0.006591
v 0.248076 0.633701 -0.006591
v -0.245262 0.634554 -0.006591
v -0.310041 0.090016 -0.006591
v 0.279322 0.677156 -0.006591
v 0.279322 0.043879 -0.006591
v 0.273147 0.256740 -0.006591
v 0.273147 0.462760 -0.006591
v 0.262141 0.164905 -0.006591
v 0.262141 0.555901 -0.006591
v -0.310041 0.360403 -0.006591
v -0.293552 0.508739 -0.366058
v -0.294766 0.503603 0.354237
v -0.294649 0.504098 -0.006591
v 0.277797 0.334122 -0.058308
v 0.277797 0.411156 0.016523
v 0.277797 0.384294 0.045428
v 0.277797 0.332436 0.044411
v 0.277797 0.308106 0.017325
v 0.277797 0.383591 -0.058203
v 0.277797 0.410782 -0.033985
v 0.277797 0.358857 -0.058255
v 0.277797 0.358365 0.044920
v 0.277797 0.307773 -0.006952
v 0.277797 0.410969 -0.006952
v 0.281466 0.358991 -0.007314
vt 0.096583 0.573031
vt 0.035959 0.572961
vt 0.035995 0.541175
vt 0.096621 0.540494
vt 0.071920 0.601050
vt 0.113689 0.602080
vt 0.105331 0.618821
vt 0.072485 0.619461
vt 0.069058 0.619006
vt 0.023985 0.618835
vt 0.023195 0.535878
vt 0.045159 0.527730
vt 0.097094 0.572361
vt 0.053035 0.572416
vt 0.052996 0.541083
vt 0.097056 0.541611
vt 0.095373 0.535922
vt 0.104471 0.542362
vt 0.100646 0.544787
vt 0.095235 0.540547
vt 0.035922 0.604701
vt 0.096547 0.604020
vt 0.102058 0.618874
vt 0.036004 0.619585
vt 0.040593 0.528252
vt 0.097141 0.527212
vt 0.036004 0.526291
vt 0.102058 0.525613
vt 0.053072 0.602539
vt 0.097132 0.603067
vt 0.097141 0.617467
vt 0.040586 0.618031
vt 0.044301 0.527929
vt 0.023195 0.535879
vt 0.023985 0.618836
vt 0.069058 0.619006
vt 0.100038 0.611301
vt 0.110710 0.600483
vt 0.116167 0.604896
vt 0.103482 0.617444
vt 0.035555 0.533481
vt 0.026410 0.543550
vt 0.021463 0.541466
vt 0.032087 0.529324
vt 0.109286 0.538862
vt 0.097939 0.530045
vt 0.101947 0.525193
vt 0.114818 0.536913
vt 0.024861 0.602236
vt 0.035593 0.612103
vt 0.032416 0.618054
vt 0.020223 0.606607
vt 0.067360 0.608796
vt 0.067256 0.619266
vt 0.110294 0.570575
vt 0.116167 0.569913
vt 0.027731 0.573690
vt 0.020080 0.574276
vt 0.066327 0.532863
vt 0.065674 0.524711
vt 0.421086 0.905744
vt 0.409110 0.905744
vt 0.414931 0.902505
vt 0.421249 0.902576
vt 0.105356 0.598093
vt 0.097620 0.605628
vt 0.096195 0.600855
vt 0.101003 0.596315
vt 0.067470 0.543119
vt 0.067446 0.551628
vt 0.104801 0.571071
vt 0.100830 0.571276
vt 0.037916 0.606584
vt 0.029758 0.600019
vt 0.033785 0.598177
vt 0.037982 0.602116
vt 0.031502 0.546525
vt 0.038100 0.538569
vt 0.039799 0.542606
vt 0.035522 0.547025
vt 0.036107 0.573146
vt 0.043307 0.573552
vt 0.067397 0.599404
vt 0.067950 0.591223
vt 0.421243 0.898543
vt 0.424958 0.898540
vt 0.428195 0.902590
vt 0.420976 0.876922
vt 0.433644 0.876923
vt 0.428105 0.880036
vt 0.421161 0.880086
vt 0.428320 0.895346
vt 0.423169 0.895168
vt 0.425111 0.893582
vt 0.435785 0.891277
vt 0.435785 0.903596
vt 0.432550 0.897769
vt 0.432589 0.891282
vt 0.432485 0.884810
vt 0.435691 0.878958
vt 0.433754 0.905646
vt 0.406962 0.891387
vt 0.406964 0.879061
vt 0.410072 0.884599
vt 0.410100 0.891373
vt 0.414018 0.891429
vt 0.413973 0.887648
vt 0.417352 0.889362
vt 0.417463 0.891403
vt 0.428402 0.891438
vt 0.428349 0.887513
vt 0.421198 0.884153
vt 0.417144 0.884256
vt 0.414842 0.880212
vt 0.410114 0.898169
vt 0.407059 0.903712
vt 0.070739 0.566475
vt 0.071481 0.584074
vt 0.029026 0.587668
vt 0.029404 0.569873
vt 0.070644 0.524833
vt 0.071525 0.540782
vt 0.028777 0.537661
vt 0.039217 0.525444
vt 0.424834 0.884090
vt 0.425152 0.889208
vt 0.423117 0.887524
vt 0.413982 0.895200
vt 0.417358 0.893444
vt 0.421124 0.895121
vt 0.421108 0.887604
vt 0.418893 0.887416
vt 0.417221 0.898518
vt 0.409000 0.877014
vt 0.418929 0.895350
vt 0.114131 0.525447
vt 0.069058 0.525268
vt 0.114131 0.619185
vt 0.114131 0.619185
vt 0.069058 0.525268
vt 0.114131 0.525447
vt 0.424974 0.891395
vt 0.114548 0.535992
vt 0.115175 0.568204
vt 0.103641 0.524190
vt 0.114825 0.585374
vt 0.027918 0.603750
vt 0.040908 0.620075
vt 0.421187 0.891373
vn -0.0043 -1.0000 0.0000
vn -0.6138 0.7894 0.0000
vn -0.0059 0.0313 0.9995
vn 0.0046 1.0000 0.0000
vn 0.0000 0.7071 -0.7071
vn -0.0113 -0.7085 -0.7056
vn 0.0006 0.6802 0.7330
vn 0.0055 -0.7064 0.7078
vn 0.0114 0.7426 -0.6696
vn 0.0062 -0.0308 -0.9995
vn 0.8874 -0.3259 -0.3259
vn 0.7869 0.4364 0.4364
vn 0.8133 -0.4114 0.4114
vn 0.8745 0.3430 -0.3430
vn 0.8920 0.0000 -0.4520
vn 0.8602 -0.5099 0.0000
vn 0.8343 0.5513 0.0000
vn 0.7752 0.0000 0.6317
vn 0.9841 -0.1779 -0.0000
vn 0.0000 0.7071 0.7071
vn 0.0000 0.0000 -1.0000
vn 0.0000 1.0000 0.0000
vn 0.0000 -0.7071 0.7071
vn 0.0000 -0.7071 -0.7071
vn 0.0000 -1.0000 0.0000
vn 0.0000 0.0000 1.0000
vn 0.9930 -0.1184 0.0005
vn 0.9841 0.1779 0.0000
vn 0.9963 -0.0637 0.0572
vn 0.9841 -0.0000 0.1779
vn 0.9952 0.0697 0.0687
vn 0.9952 -0.0700 0.0684
vn 0.9841 0.0000 -0.1779
vn 0.9958 0.0002 -0.0912
vn 0.9937 -0.0007 0.1118
vn 0.9931 0.1170 -0.0003
vn 0.9952 -0.0688 -0.0700
vn -0.9941 0.1085 -0.0008
vn -0.8888 -0.4584 0.0000
vn 0.9892 0.0000 -0.1469
vn 0.9873 -0.1587 0.0000
vn 0.9872 0.1596 0.0000
vn 0.9848 0.0000 0.1736
vn 0.9857 -0.1193 0.1193
vn 0.9886 0.1064 -0.1064
vn 0.9887 -0.1061 -0.1061
vn 0.9855 0.1198 0.1198
vn 0.9963 0.0626 0.0581
vn 0.9959 -0.0907 0.0012
vn 0.9960 0.0894 -0.0006
vn 0.9944 0.0725 -0.0774
vn 0.9942 -0.0744 -0.0779
vn 0.9952 -0.0716 0.0674
vn 0.9953 0.0698 0.0669
vn 0.9920 0.0001 -0.1263
vn 0.9952 0.0685 -0.0702
vn 0.9959 -0.0907 0.0011
vn 0.9963 0.0569 -0.0639
vn 0.9920 0.0001 -0.1261
vn -1.0000 0.0000 0.0000
vn 0.9939 -0.0007 0.1103
vn -0.0114 0.0000 -0.9999
vn 0.0114 0.0000 0.9999
vn 0.9960 -0.0017 0.0890
vn 0.9963 -0.0580 -0.0629
vn -0.9943 0.1063 -0.0001
vn 0.9931 0.1177 -0.0003
vn 0.9928 -0.1196 0.0005
vn 0.9960 0.0894 -0.0007
vn -0.0115 -0.0397 -0.9991
vn -0.9344 0.3562 0.0009
vn -0.9353 0.3538 0.0001
vn 0.0115 0.0388 0.9992
vn 0.9974 -0.0715 0.0010
vn 0.9974 -0.0715 0.0009
vn 0.9977 0.0493 0.0458
vn 0.9975 -0.0014 0.0701
vn 0.9977 -0.0457 -0.0495
vn 0.9977 -0.0501 0.0450
vn 0.9975 0.0704 -0.0005
vn 0.9974 0.0002 -0.0719
vn 0.9977 0.0448 -0.0503
vn 0.9975 0.0704 -0.0006
usemtl Material
s off
f 75/1/1 72/2/1 21/3/1 15/4/1
f 80/5/2 13/6/2 14/7/2 74/8/2
f 60/9/3 19/10/3 13/11/3 90/12/3
f 73/13/4 74/14/4 14/15/4 20/16/4
f 7/17/5 8/18/5 29/19/5 30/20/5
f 18/21/6 12/22/6 11/23/6 17/24/6
f 20/16/7 14/15/7 13/25/7 19/26/7
f 15/4/8 21/3/8 22/27/8 16/28/8
f 9/29/9 23/30/9 24/31/9 10/32/9
f 89/33/10 10/34/10 24/35/10 59/36/10
f 33/37/11 34/38/11 18/39/11 17/40/11
f 35/41/12 36/42/12 20/43/12 19/44/12
f 37/45/13 38/46/13 22/47/13 21/48/13
f 39/49/14 40/50/14 24/51/14 23/52/14
f 67/53/15 33/37/15 17/40/15 59/54/15
f 83/55/16 37/45/16 21/48/16 72/56/16
f 82/57/17 39/49/17 23/52/17 73/58/17
f 66/59/18 35/41/18 19/44/18 60/60/18
f 78/61/19 26/62/19 53/63/19 86/64/19
f 3/65/20 4/66/20 25/67/20 26/68/20
f 63/69/21 7/17/21 30/20/21 65/70/21
f 76/71/22 3/65/22 26/68/22 78/72/22
f 1/73/23 2/74/23 31/75/23 32/76/23
f 5/77/24 6/78/24 27/79/24 28/80/24
f 77/81/25 5/77/25 28/80/25 79/82/25
f 62/83/26 1/73/26 32/76/26 64/84/26
f 84/85/27 46/86/27 54/87/27 86/64/27
f 79/88/28 28/89/28 57/90/28 87/91/28
f 45/92/29 46/86/29 96/93/29 95/94/29
f 65/95/30 30/96/30 55/97/30 71/98/30
f 56/99/31 57/90/31 28/89/31 27/100/31
f 54/87/32 55/97/32 30/96/32 29/101/32
f 64/102/33 32/103/33 50/104/33 69/105/33
f 68/106/34 47/107/34 97/108/34 99/109/34
f 70/110/35 44/111/35 56/99/35 71/98/35
f 85/112/36 48/113/36 49/114/36 87/91/36
f 52/115/37 53/63/37 26/62/37 25/116/37
f 88/117/38 91/118/38 89/119/38 58/120/38
f 75/121/39 81/122/39 11/123/39 12/124/39
f 63/69/40 6/78/40 35/41/40 66/59/40
f 77/81/41 2/74/41 39/49/41 82/57/41
f 76/71/42 8/18/42 37/45/42 83/55/42
f 62/83/43 4/66/43 33/37/43 67/53/43
f 2/74/44 1/73/44 40/50/44 39/49/44
f 8/18/45 7/17/45 38/46/45 37/45/45
f 6/78/46 5/77/46 36/42/46 35/41/46
f 4/66/47 3/65/47 34/38/47 33/37/47
f 43/125/48 44/111/48 94/126/48 93/127/48
f 42/128/34 68/106/34 99/109/34 92/129/34
f 46/86/49 84/85/49 101/130/49 96/93/49
f 48/113/50 85/112/50 102/131/50 98/132/50
f 49/114/51 48/113/51 47/107/51 50/104/51
f 41/133/52 53/63/52 52/115/52 42/128/52
f 45/92/53 55/97/53 54/87/53 46/86/53
f 43/125/54 57/90/54 56/99/54 44/111/54
f 68/106/55 42/128/55 52/115/55 69/105/55
f 49/114/56 50/104/56 32/103/56 31/134/56
f 84/85/57 41/133/57 51/135/57 101/130/57
f 47/107/58 48/113/58 98/132/58 97/108/58
f 47/107/59 68/106/59 69/105/59 50/104/59
f 1/73/43 62/83/43 67/53/43 40/50/43
f 7/17/40 63/69/40 66/59/40 38/46/40
f 81/122/60 88/117/60 58/120/60 11/123/60
f 45/92/61 70/110/61 71/98/61 55/97/61
f 25/116/33 64/102/33 69/105/33 52/115/33
f 27/100/30 65/95/30 71/98/30 56/99/30
f 4/66/26 62/83/26 64/84/26 25/67/26
f 6/78/21 63/69/21 65/70/21 27/79/21
f 38/46/18 66/59/18 60/60/18 22/47/18
f 40/50/15 67/53/15 59/54/15 24/51/15
f 11/136/62 58/137/62 59/36/62 17/138/62
f 22/139/63 60/9/63 61/140/63 16/141/63
f 44/111/64 70/110/64 100/142/64 94/126/64
f 41/133/65 42/128/65 92/129/65 51/135/65
f 16/143/60 61/144/60 88/117/60 81/122/60
f 3/65/42 76/71/42 83/55/42 34/38/42
f 5/77/41 77/81/41 82/57/41 36/42/41
f 15/145/39 16/143/39 81/122/39 75/121/39
f 61/144/66 90/146/66 91/118/66 88/117/66
f 43/125/67 85/112/67 87/91/67 57/90/67
f 31/134/28 79/88/28 87/91/28 49/114/28
f 41/133/68 84/85/68 86/64/68 53/63/68
f 2/74/25 77/81/25 79/82/25 31/75/25
f 8/18/22 76/71/22 78/72/22 29/19/22
f 29/101/19 78/61/19 86/64/19 54/87/19
f 36/42/17 82/57/17 73/58/17 20/43/17
f 34/38/16 83/55/16 72/56/16 18/39/16
f 23/30/4 9/29/4 74/14/4 73/13/4
f 10/147/2 80/5/2 74/8/2 9/148/2
f 12/22/1 18/21/1 72/2/1 75/1/1
f 85/112/69 43/125/69 93/127/69 102/131/69
f 58/137/70 89/33/70 59/36/70
f 89/119/71 91/118/71 80/5/71 10/147/71
f 91/118/72 90/146/72 13/6/72 80/5/72
f 61/140/73 60/9/73 90/12/73
f 70/110/64 45/92/64 95/94/64 100/142/64
f 96/93/74 101/130/74 103/149/74
f 101/130/75 51/135/75 103/149/75
f 93/127/76 94/126/76 103/149/76
f 100/142/77 95/94/77 103/149/77
f 94/126/77 100/142/77 103/149/77
f 51/135/78 92/129/78 103/149/78
f 95/94/79 96/93/79 103/149/79
f 98/132/80 102/131/80 103/149/80
f 99/109/81 97/108/81 103/149/81
f 97/108/82 98/132/82 103/149/82
f 102/131/83 93/127/83 103/149/83
f 92/129/81 99/109/81 103/149/81
